<?xml version="1.0" encoding="utf-8"?>
<!-- Generator: Adobe Illustrator 18.0.0, SVG Export Plug-In . SVG Version: 6.00 Build 0)  -->
<!DOCTYPE svg PUBLIC "-//W3C//DTD SVG 1.1//EN" "http://www.w3.org/Graphics/SVG/1.1/DTD/svg11.dtd">
<svg version="1.1" xmlns="http://www.w3.org/2000/svg" xmlns:xlink="http://www.w3.org/1999/xlink" x="0px" y="0px"
	 viewBox="0 0 630 157.9" enable-background="new 0 0 630 157.9" xml:space="preserve">
<g id="damit_Bildung_ankommt__x21__1_" enable-background="new    ">
	<g id="damit_Bildung_ankommt__x21_">
		<g>
			<path fill-rule="evenodd" clip-rule="evenodd" fill="#F58331" d="M135.9,123.1c0.3,0,0.6,0,1,0c0.3,0,0.7,0,1,0
				c0.1,0,0.4-0.1,0.7-0.2c0.3-0.2,0.7-0.4,1.2-0.8c0.4-0.3,0.8-0.7,1.1-1c0.3-0.4,0.5-0.8,0.7-1.3c0.1-0.2,0.2-0.6,0.3-1.1
				c0.1-0.5,0.2-1.1,0.4-1.9c0-0.4,0.1-0.9,0.2-1.5c0-0.4-0.2-0.7-0.4-0.9c-0.3-0.2-0.7-0.3-1.2-0.2c-0.4,0-0.8,0.1-1.2,0.2
				c-0.3,0.1-0.6,0.3-0.8,0.4c-0.4,0.6-0.8,1.2-1.1,1.6c-0.6,0.1-1.2,0.7-1.9,1.7c-0.7,1-1,1.9-0.9,2.5c0.1,0.7,0.2,1.3,0.4,1.7
				C135.3,122.7,135.6,123,135.9,123.1z M161.3,140.1c-0.7,0.7-1.2,1-1.3,1c-0.2,0-0.4-0.1-0.5-0.2c-0.1-0.2-0.2-0.4-0.2-0.7
				c0-0.4,0-1.1,0.1-2.2c0.1-1.1,0.2-2.6,0.4-4.4c0.4-2.3,0.7-4.2,1-5.9c0.3-1.7,0.6-3,0.9-4.1c0.1-0.4,0.1-0.8,0.2-1.1
				c0-0.3,0.1-0.6,0.1-0.8l2.1-0.6c0.3,0,0.4-0.4,0.5-1.1c0.1-0.7,0-1.7-0.1-2.9c0-0.3-0.1-0.5-0.1-0.7c-0.1-0.2-0.2-0.3-0.3-0.4
				c-0.2-0.1-0.3-0.2-0.4-0.3c-0.1-0.1-0.1-0.2-0.2-0.3c0-0.4,0.1-1,0.3-1.8c0.2-0.8,0.3-1.5,0.3-1.9c-0.1-0.6-0.2-1.1-0.5-1.4
				c-0.3-0.3-0.7-0.4-1.2-0.4c-1,0.1-1.8,1.1-2.4,3.2c-0.7,2-1.4,3.1-2.1,3.3l-1.1-0.2c-0.3,0.1-0.6,0.2-0.9,0.2
				c-0.3,0.1-0.5,0.2-0.8,0.2c-0.2,0-0.5-0.1-0.9-0.1c-0.4,0-0.9,0-1.5,0.1c-0.3,0.1-0.6,0.2-0.9,0.3c-0.4,0-0.9-0.1-1.4-0.1
				c-0.5,0-1.1,0-1.7,0.1c-0.6,0.1-1,0.4-1.2,1.2c-0.2,0.7-0.3,1.8-0.2,3.1c0,0.2,0.1,0.3,0.2,0.5c0.1,0.1,0.4,0.2,0.6,0.3
				c0.2,0.1,0.4,0.1,0.5,0.2c0.2,0.1,0.4,0.1,0.6,0.2c0.2,0,0.4,0,0.8,0c0.4,0,0.7,0,0.8,0l4-0.3c0.1,0,0.4-0.1,0.6-0.2
				c0.3-0.1,0.5-0.2,0.6-0.2c0.1,0,0.3,0,0.3,0.1c0.1,0.1,0.1,0.1,0.1,0.3c-0.2,0.6-0.4,1.1-0.6,1.5c-0.2,0.4-0.3,0.7-0.5,1
				c-1.2,2.6-2.4,5-3.6,7s-2.6,3.8-4,5.3c-0.2,0.4-0.5,0.7-0.6,0.9c-0.2,0.3-0.3,0.5-0.4,0.7l-0.1,0.3c0.1,0.1,0.2,0.1,0.2,0.2
				c0.1,0.1,0.1,0.2,0.2,0.3c-0.1,0.1-0.2,0.2-0.3,0.3c-0.3,0.3-0.6,0.6-0.9,0.9c-0.4,0.4-0.8,0.6-1.2,0.8c-0.4,0.2-0.8,0.3-1.2,0.3
				c-0.3,0-0.6,0-0.8-0.1c-0.2-0.1-0.4-0.2-0.5-0.4c-0.1-0.1-0.3-0.6-0.6-1.4c-0.3-0.8-0.5-1.5-0.7-1.9c-0.1-0.7-0.3-1.3-0.5-2
				c-0.2-0.7-0.4-1.3-0.6-1.9c-0.2-0.7-0.6-1.2-1.2-1.6c-0.5-0.3-1.2-0.5-1.9-0.4c-0.3,0-0.5,0.1-0.8,0.3c-0.3,0.2-0.5,0.4-0.7,0.8
				c-0.5,0.8-1.4,1.9-2.7,3.3c-1.3,1.4-2.2,2.5-2.7,3.3l-0.1,0.3l-0.2,0.2c0.1,0.1,0.2,0.1,0.2,0.2c0,0,0,0,0,0
				c-0.5,0-1-0.4-1.6-1.1c-0.7-0.8-1.6-2-2.5-3.6c-0.1-0.2-0.4-0.5-0.7-0.8c-0.3-0.3-0.8-0.7-1.3-1c-0.1-0.1-0.2-0.1-0.3-0.2
				c-0.1-0.1-0.2-0.1-0.3-0.1c-0.6,0.1-1.2,0.2-1.8,0.5c-0.6,0.3-1.2,0.7-1.7,1.2c-0.5,0.5-1,0.9-1.5,1.4c-0.4,0.4-0.9,0.9-1.3,1.3
				c-0.3,0.4-0.5,0.8-0.7,1.1c-0.2,0.3-0.4,0.5-0.5,0.7c-0.3-0.1-0.4-0.2-0.4-0.4c0-0.1,0-0.3,0-0.4c0-0.1,0-0.3,0.1-0.5
				c0.4-1.1,0.6-2.3,0.7-3.5c0.1-1.2,0.1-2.4,0-3.7c-0.1-0.9-0.3-1.5-0.6-2c-0.3-0.4-0.8-0.6-1.4-0.6c-0.6,0-1.3,0.5-2.2,1.2
				c-0.9,0.8-1.9,1.9-3.1,3.4c-1.3,1.7-2.4,3.1-3.2,4.1c-0.8,1-1.4,1.6-1.7,1.7c-0.1,0-0.3,0-0.3-0.1c-0.1-0.1-0.1-0.2-0.1-0.3
				c0.1-0.5,0.2-1.1,0.3-1.7c0.1-0.7,0.2-1.4,0.2-2.1c0-0.7,0-1.3,0-1.9c-0.1-0.7-0.2-1.2-0.6-1.6c-0.3-0.3-0.7-0.5-1.3-0.4
				c-0.9,0.5-1.7,0.9-2.4,1.2c-0.7,0.8-1.3,1.6-1.8,2.2c-0.5,0.6-1,1.2-1.3,1.6c-0.7,0.8-1.5,1.7-2.3,2.7c-0.8,1-1.6,2.1-2.4,3.3
				c-0.2,0.3-0.4,0.6-0.5,0.9c-0.1,0.3-0.3,0.5-0.4,0.6c0.1,0.2,0.2,0.4,0.3,0.5c0,0,0,0-0.1,0c-0.1,0.2-0.3,0.4-0.4,0.5
				c-0.1,0.2-0.2,0.4-0.4,0.6c-0.2,0.2-0.3,0.3-0.5,0.5c-0.2,0.1-0.4,0.2-0.5,0.2c-0.6,0.1-1.2-0.2-1.6-0.7
				c-0.4-0.5-0.7-1.1-0.7-1.8c-0.1-1-0.2-2-0.2-3c-0.1-0.7-0.3-1.2-0.5-1.5c-0.3-0.3-0.6-0.5-1.1-0.4c-0.7,0.1-1.5,0.4-2.3,1
				c-0.8,0.6-1.6,1.6-2.5,2.8c-0.2,0.1-0.3,0.3-0.5,0.4c-0.1,0.1-0.3,0.2-0.4,0.3c-0.2,0.1-0.5,0.4-0.9,0.9c-0.4,0.4-1,1-1.6,1.7
				c-0.6,0.6-1.1,1.2-1.6,1.6c-0.5,0.4-0.9,0.7-1.4,0.9l-0.2-0.3c0.5-0.9,1-1.7,1.3-2.2c0.3-0.6,0.6-0.9,0.7-1.1
				c1.1-1.1,2-2.1,2.6-2.9c0.6-0.8,1-1.4,1.2-1.9c0.5-0.4,0.8-0.7,1.1-1c0.3-0.3,0.5-0.5,0.6-0.6c0.1-0.2,0.3-0.5,0.5-0.8
				c0.6-0.5,1.1-1.1,1.6-1.6c0.4-0.5,0.8-1,1.1-1.5c0.6-0.5,1.1-1,1.6-1.4c0.3-0.3,0.5-0.6,0.7-0.9c0.1-0.3,0.2-0.7,0.1-1.2
				c0-0.4-0.2-0.7-0.5-0.9c-0.3-0.2-0.7-0.3-1.2-0.2c-1,0.1-2.2,0.6-3.5,1.7c-1.4,1-2.9,2.5-4.7,4.5c-0.4,0.4-0.7,0.8-1.1,1.1
				c-0.3,0.3-0.6,0.5-0.8,0.6c-0.4,0.5-0.8,0.9-1.1,1.2s-0.5,0.6-0.7,0.9c-0.3,0.2-0.6,0.4-0.8,0.6c-0.2,0.2-0.4,0.5-0.5,0.7
				c-0.2,0.4-0.3,0.6-0.4,0.8c-0.1,0.2-0.2,0.3-0.3,0.5l-2.7,2.1c-0.2,0.4-0.3,0.7-0.5,0.9c-0.1,0.3-0.2,0.4-0.3,0.5
				c0.1,0.2,0.2,0.4,0.3,0.6c-0.2,0.2-0.4,0.3-0.6,0.5c-0.4,0.3-0.8,0.4-1.2,0.4c-0.4,0-0.7,0-1-0.2c-0.3-0.2-0.6-0.4-0.9-0.8
				c-0.4-0.6-0.8-1.1-1.1-1.6c-0.3-0.5-0.5-0.9-0.6-1.3c-0.1-0.3-0.2-0.8-0.3-1.3c-0.1-0.6-0.1-1.2-0.2-2l1.4-7.4l-0.2-0.7
				c0.2-0.3,0.3-0.6,0.4-0.8c0.1-0.2,0.2-0.4,0.3-0.5c0-0.1,0.1-0.4,0.3-0.8c0.2-0.4,0.4-1,0.7-1.8c0.2-0.7,0.4-1.2,0.5-1.6
				c0.1-0.4,0.2-0.6,0.2-0.8c0-0.2,0-0.4,0-0.6c0-0.2,0-0.3,0-0.5l0.4-0.6c0-0.3,0-0.5,0.1-0.7c0-0.2,0-0.4,0-0.5
				c0.2-0.2,0.3-0.5,0.5-0.8c0.1-0.3,0.2-0.6,0.2-0.9c0-0.4,0-0.8,0-1.1c0-0.3,0-0.5,0.1-0.7c0.3-0.7,0.4-1.5,0.5-2.4
				c0.1-0.8,0-1.7,0-2.6c0-0.6-0.2-1-0.4-1.3c-0.2-0.3-0.5-0.4-0.9-0.4c-0.5,0-0.9,0.2-1.4,0.5c-0.4,0.3-0.8,0.7-1.1,1.3
				c-0.5,1.1-0.9,2.1-1.2,3c-0.7,1.7-1.3,3.2-1.8,4.6c-0.5,1.3-0.9,2.5-1.2,3.5c-0.1,0.2-0.1,0.4-0.2,0.9c-0.1,0.4-0.2,1-0.4,1.6
				c-0.1,0.5-0.2,1-0.3,1.4c-0.1,0.4-0.3,0.7-0.4,1c0,0.4,0,0.8-0.1,1.1c-0.1,0.3-0.3,0.5-0.6,0.7c-0.6,0.3-1.1,0.6-1.4,0.8
				c-0.4,0.2-0.6,0.4-0.8,0.5c-0.9,1-1.7,1.7-2.2,2.3c-0.5,0.5-0.9,0.9-1.1,1.1c-0.4,0.5-0.8,1.1-1.3,1.7c-0.5,0.6-0.9,1.1-1.4,1.6
				c-0.2,0.3-0.4,0.5-0.6,0.6c-0.2,0.2-0.3,0.3-0.4,0.5c-0.5,0.6-0.9,1.2-1.2,1.6c-0.3,0.5-0.6,0.8-0.7,1.1l-0.4,0.3
				c-0.6,0.3-1.1,0.6-1.4,0.8c-0.3,0.2-0.6,0.4-0.7,0.5c-0.1,0.2-0.3,0.4-0.6,0.7c-0.3,0.3-0.5,0.7-0.9,1.2l-0.1,0.3l-0.2,0.2
				l1.5,2.8l0.2,0.5c0,0.4-0.1,1.1-0.4,2c-0.3,0.9-0.4,1.6-0.4,2.1c0.1,1.1,0.4,1.8,1,2.3c0.5,0.4,1.4,0.6,2.4,0.5
				c0.6-0.1,1.3-0.4,2-0.9c0.8-0.6,1.6-1.4,2.4-2.5c0.6-0.8,1.3-1.7,1.9-2.5c0.6-0.8,1.2-1.7,1.9-2.5c0.3-0.4,0.5-0.8,0.6-1.1
				c0.1-0.3,0.2-0.6,0.3-0.8c0.3-0.5,0.6-0.9,0.8-1.3c0.3-0.3,0.5-0.6,0.8-0.8c0.1-0.1,0.2-0.3,0.3-0.5c0.4,0.4,0.7,0.8,0.9,1.2
				c0.1,0.2,0.2,0.4,0.3,0.7c0.1,0.2,0.2,0.5,0.3,0.9c0.5,1.6,1.3,2.8,2.4,3.5c1.1,0.7,2.4,1,4,0.9c0.7-0.1,1.3-0.2,1.8-0.4
				c0.4-0.2,0.8-0.5,1.1-0.9c-0.2,0.5-0.2,1-0.2,1.5c0.1,1,0.4,1.8,0.9,2.2c0.5,0.5,1.3,0.6,2.3,0.5c0.1,0,0.4-0.1,0.7-0.3
				c0.3-0.2,0.7-0.4,1.1-0.7c0.7-0.4,1.3-0.9,1.8-1.3c0.5-0.4,1-0.8,1.4-1.2c0.2-0.2,0.5-0.6,1-1.1c0.5-0.5,1-1.2,1.7-2
				c0.5-0.5,1-0.9,1.3-1.3c0.4-0.4,0.7-0.6,1-0.9c0.2-0.2,0.3-0.4,0.4-0.5c0.1-0.1,0.2-0.2,0.3-0.4c0.2,0.2,0.3,0.4,0.4,0.6
				c0.1,0.2,0.1,0.4,0.1,0.6c0.3,1.6,0.8,2.7,1.6,3.4c0.8,0.7,1.9,1,3.3,0.9c0.6-0.1,1.2-0.2,1.7-0.5c0.6-0.3,1.2-0.7,1.7-1.2
				c0.5-0.5,1-1,1.4-1.5s0.9-1,1.3-1.5c-0.1-0.3-0.3-0.6-0.4-0.9c0.6-0.6,1-1.2,1.4-1.7c0.4-0.5,0.7-0.9,1-1.3
				c0.4-0.6,0.7-1.1,1.1-1.4c0.3-0.3,0.6-0.5,0.9-0.5c0.1,0,0.3,0,0.4,0.1s0.2,0.2,0.2,0.4c0.1,0.9-0.2,2.5-0.7,4.7
				c-0.6,2.3-0.8,3.7-0.7,4.4c0,0.3,0.2,0.5,0.5,0.6c0.3,0.1,0.8,0.2,1.5,0.1c0.2,0,0.7-0.4,1.3-1.2c0.7-0.8,1.6-1.9,2.7-3.5
				c0.7-1,1.4-1.9,2.1-2.8c0.7-0.9,1.4-1.9,2-2.8c0.6-0.6,1.1-1,1.4-1.3c0.3-0.3,0.5-0.6,0.8-0.9c0.2-0.2,0.4-0.4,0.6-0.5
				c0.2-0.1,0.3-0.2,0.5-0.2c0.2,0,0.3,0,0.5,0.2c0.1,0.1,0.2,0.3,0.2,0.5c-0.1,1.3-0.1,2.4-0.2,3.2c0,0.8-0.1,1.4-0.1,1.6
				c0,0.2-0.1,0.6-0.2,1.1c-0.1,0.5-0.3,1.3-0.5,2.2c-0.2,0.7-0.3,1.3-0.3,1.9c-0.1,0.5-0.1,0.9-0.1,1.3c0,0.3,0.1,0.5,0.2,0.7
				c0.1,0.2,0.2,0.3,0.4,0.4c0.5,0,1,0,1.3,0c0.6-0.1,2.1-1.8,4.4-5.3c2.3-3.4,4-5.2,5.1-5.3c0.8-0.1,2.1,0.8,3.8,2.5
				c1.7,1.7,3.3,2.6,4.8,2.4c0.4,0,0.9-0.2,1.5-0.6c0.6-0.4,1.2-0.9,1.9-1.5c-0.1-0.2-0.2-0.5-0.4-0.7c0.5-0.6,0.9-1.1,1.3-1.4
				c0.5-0.5,1-0.8,1.3-0.8c0.1,0,0.3,0.1,0.5,0.3c0.2,0.2,0.5,0.6,0.8,1c0.2,0.3,0.5,0.6,0.6,0.8c0.2,0.2,0.3,0.4,0.4,0.6
				c0.9,2,1.6,3.1,2.2,3.5s1.9,0.5,3.8,0.3c0.3,0,0.8-0.2,1.4-0.6c0.6-0.4,1.3-0.9,2.1-1.6c0.7-0.6,1.4-1.2,1.9-1.7
				c0.5-0.5,0.9-0.9,1.2-1.3l-0.5-0.8c0.1-0.2,0.2-0.3,0.3-0.4c1-1.1,2-2.3,3-3.4c0.6-0.7,1.2-1.3,1.7-1.9c0.5-0.6,0.8-1.2,1.1-1.7
				l0.3-0.2c0.2,0.1,0.3,0.2,0.3,0.3c-0.2,0.6-0.4,1.1-0.6,1.7c-0.1,0.8-0.1,1.7-0.2,2.5c0,0.5-0.1,0.9-0.1,1.3c0,0.4,0,0.6,0,0.9
				c0,0.1-0.1,0.3-0.2,0.5c-0.1,0.6-0.2,1.3-0.2,2.2c0,0.9,0,2,0.2,3.2c0.1,1.1,0.4,1.9,0.9,2.4c0.5,0.5,1.2,0.7,2.1,0.6
				c0.4,0,0.9-0.2,1.3-0.5c0.5-0.3,0.9-0.7,1.4-1.3c0.3-0.4,0.7-0.9,1-1.3c0.3-0.5,0.7-0.9,1-1.4c0.3-0.4,0.7-0.8,1-1.1
				c0.3-0.3,0.5-0.6,0.7-0.8c0.5-0.4,0.9-0.8,1.3-1.1c0.4-0.3,0.6-0.6,0.8-0.9l-1.5-2.8C163.1,138.5,162,139.5,161.3,140.1z
				 M56.2,140.4c-0.5,1.3-1.4,2.8-2.5,4.7c-1.1,1.7-2.1,3.1-2.9,4.1c-0.8,1-1.6,1.6-2.2,1.9c-0.2-0.1-0.3-0.3-0.3-0.4
				c0.2-0.7,0.4-1.2,0.6-1.7c0.6-1.2,1.1-2.2,1.5-3c0.4-0.8,0.7-1.4,1-1.7c0.9-1.2,1.5-2.1,2-2.9c0.5-0.8,0.8-1.3,0.9-1.7
				c0.6-0.6,1.1-1.1,1.5-1.5c0.4-0.5,0.8-0.9,1.1-1.2c0.1,0.2,0.2,0.4,0.2,0.5C57,138.1,56.7,139.1,56.2,140.4z M213.5,116.4
				c0.3,0,0.6,0,1,0c0.3,0,0.7,0,1,0c0.1,0,0.4-0.1,0.7-0.2c0.3-0.2,0.7-0.4,1.2-0.8c0.4-0.3,0.8-0.7,1.1-1c0.3-0.4,0.5-0.8,0.7-1.3
				c0.1-0.2,0.2-0.6,0.3-1.1c0.1-0.5,0.2-1.1,0.4-1.9c0-0.4,0.1-0.9,0.2-1.5c0-0.4-0.2-0.7-0.4-0.9c-0.3-0.2-0.7-0.3-1.2-0.2
				c-0.4,0-0.8,0.1-1.2,0.2c-0.3,0.1-0.6,0.3-0.8,0.4c-0.4,0.6-0.8,1.2-1.1,1.6c-0.6,0.1-1.2,0.7-1.9,1.7c-0.7,1-1,1.9-0.9,2.5
				c0.1,0.7,0.2,1.3,0.4,1.7C213,116,213.2,116.2,213.5,116.4z M337.7,132.6c-0.3-0.3-0.6-0.6-0.8-0.8c-0.2-0.3-0.3-0.5-0.4-0.7
				c0.6-1.1,1.2-2.1,1.8-3c0.5-0.9,1-1.6,1.3-2.2c0.4-0.6,0.6-0.9,0.7-1.1L339,122c-1.4,2-2.5,3.5-3.3,4.6c-0.8,1.1-1.4,1.7-1.7,1.8
				c-0.3-0.2-0.6-0.4-0.8-0.6c-0.2-0.2-0.4-0.4-0.6-0.6c-0.7-0.8-1.2-1.4-1.6-1.9c-0.4-0.5-0.6-0.8-0.8-0.9
				c-0.2-0.4-0.5-0.9-0.6-1.5c-0.2-0.6-0.3-1.3-0.3-2.1c0.1-0.6,0.2-1.1,0.3-1.5c0.4-0.5,0.7-0.9,1-1.2c0.3-0.4,0.6-0.7,0.9-1
				c0.6-0.9,1.3-1.7,1.9-2.5c0.7-0.8,1.3-1.7,1.9-2.5c0.9-1.3,1.6-2.4,2.1-3.3c0.4-0.8,0.7-1.5,0.6-1.8c-0.1-1-0.3-1.8-0.7-2.3
				c-0.4-0.5-0.8-0.7-1.4-0.7c-0.9,0.1-1.7,0.4-2.4,0.9c-0.7,0.5-1.4,1.3-2,2.3c-1.1,1.6-2.2,3-3.3,4.4c-0.7,1-1.3,1.8-1.7,2.6
				c-0.4,0.8-0.6,1.4-0.7,2c-0.3,0.6-0.5,1.2-0.7,1.6c-0.2,0.5-0.4,0.9-0.5,1.2c-0.4,0.6-0.8,1.2-1.1,1.6c-0.3,0.4-0.6,0.8-0.9,1
				c-0.3,0.4-0.5,0.8-0.7,1.1c-0.2,0.3-0.3,0.6-0.5,0.8c0.1,0.2,0.2,0.3,0.3,0.5c-0.2,0.1-0.4,0.1-0.6,0.2c-0.4,0-0.7-0.1-1-0.4
				s-0.6-0.8-0.9-1.4c-0.5-1.1-1-2.3-1.5-3.5c-0.4-0.6-0.9-1.1-1.4-1.4c-0.5-0.3-1.1-0.4-1.8-0.3c-0.3,0-0.7,0.1-1.2,0.4
				c-0.4,0.2-0.9,0.5-1.5,0.8c-0.5,0.4-0.9,0.7-1.3,1c-0.4,0.3-0.7,0.6-0.9,0.9c-0.2,0.2-0.3,0.4-0.4,0.6c-0.1,0.2-0.2,0.3-0.3,0.4
				c-0.4,0.3-0.7,0.7-0.9,1.1c-0.3,0.4-0.5,0.7-0.7,1.1c-0.4,0.5-0.8,0.9-1.2,1.3c-0.3,0.4-0.5,0.7-0.7,1.1
				c-0.1,0.2-0.2,0.3-0.3,0.4c-0.1,0.1-0.2,0.2-0.3,0.3c-0.2-0.2-0.3-0.3-0.3-0.5c0-0.1,0-0.3,0-0.5c0-0.2,0.1-0.5,0.2-0.7
				c0.1-0.4,0.3-0.8,0.4-1.2c0.6-2.3,1-4.2,1.2-5.6c0.2-1.4,0.3-2.3,0.3-2.8c-0.1-0.9-0.3-1.6-0.7-2c-0.4-0.4-1-0.6-1.7-0.6
				c-0.8,0.1-1.5,0.3-2.1,0.7c-0.6,0.4-1.2,1-1.8,1.7c-0.6,0.8-1.2,1.6-1.6,2.2c-0.5,0.6-0.8,1.1-1.1,1.5c-0.7,1-1.3,1.8-1.8,2.4
				c-0.5,0.7-0.9,1.2-1.3,1.7c-0.4,0.5-0.7,0.9-1,1.2c-0.3,0.3-0.6,0.6-0.8,0.8c-0.2,0.3-0.3,0.5-0.4,0.7c-0.1,0.2-0.2,0.4-0.3,0.5
				c0.1,0.1,0.1,0.2,0.1,0.2c-0.2,0-0.3,0.1-0.4,0.1c-0.6,0-1-0.1-1.3-0.5c-0.3-0.4-0.5-0.9-0.6-1.7c0-0.2-0.1-0.5-0.2-1
				s-0.2-0.8-0.2-1c-0.1-0.6-0.1-1.1-0.2-1.4c-0.1-0.4-0.1-0.6-0.2-0.7c-0.2-0.3-0.4-0.4-0.7-0.6c-0.3-0.1-0.8-0.1-1.3-0.1
				c-0.6,0.1-1.1,0.3-1.6,0.9c-0.5,0.5-0.8,1.3-1.1,2.4c-0.1,0.2-0.3,0.5-0.5,0.7c-0.2,0.2-0.3,0.5-0.5,0.6c-0.4,0.6-0.7,1.2-1,1.8
				c-0.6,0.9-1.1,1.6-1.5,2.2c-0.4,0.6-0.8,1.2-1.2,1.6c-0.4,0.3-0.8,0.5-1.1,0.7c-0.3,0.2-0.6,0.4-0.8,0.5
				c-0.2,0.1-0.4-0.2-0.6-0.7c-0.2-0.6-0.3-1.4-0.4-2.6c-0.1-0.6-0.1-1.3,0-2.1c0-0.8,0.1-1.6,0.3-2.5c0.1-0.7,0.3-1.5,0.5-2.2
				c0.2-0.8,0.3-1.5,0.4-2.3c0.2-0.5,0.3-0.9,0.4-1.3c0.1-0.3,0.1-0.5,0.2-0.8c0-0.2,0.1-0.4,0-0.5c0-0.4-0.1-0.7-0.3-0.8
				c-0.2-0.2-0.4-0.3-0.8-0.2c-0.2,0-0.5,0.1-0.9,0.3c-0.4,0.2-1.1,0.5-1.9,1c-0.4,0.7-0.9,1.4-1.3,2.1c-0.4,0.7-0.8,1.4-1.2,2.1
				c-0.5,0.7-1,1.4-1.4,2c-0.4,0.7-0.9,1.3-1.3,2c-0.5,0.7-1,1.4-1.4,1.9c-0.4,0.6-0.8,1-1.1,1.3c0,0.1,0,0.2-0.1,0.3
				c0,0.1-0.1,0.2-0.2,0.2c0.1,0.2,0.2,0.4,0.4,0.6c-0.2,0.2-0.3,0.3-0.5,0.4c-0.4,0.3-0.8,0.4-1.2,0.4c-0.4,0-0.7,0-1-0.2
				c-0.3-0.2-0.6-0.4-0.9-0.8c-0.4-0.6-0.8-1.1-1.1-1.6c-0.3-0.5-0.5-0.9-0.6-1.3c-0.1-0.3-0.2-0.8-0.3-1.3c-0.1-0.6-0.1-1.2-0.2-2
				l1.4-7.4l-0.2-0.7c0.2-0.3,0.3-0.6,0.4-0.8c0.1-0.2,0.2-0.4,0.3-0.5c0-0.1,0.1-0.4,0.3-0.8c0.2-0.4,0.4-1,0.7-1.8
				c0.2-0.7,0.4-1.2,0.5-1.6c0.1-0.4,0.2-0.6,0.2-0.8c0-0.2,0-0.4,0-0.6c0-0.2,0-0.3,0-0.5l0.4-0.6c0-0.3,0-0.5,0.1-0.7
				c0-0.2,0-0.4,0-0.5c0.2-0.2,0.3-0.5,0.5-0.8c0.1-0.3,0.2-0.6,0.2-0.9c0-0.4,0-0.8,0-1.1c0-0.3,0-0.5,0.1-0.7
				c0.3-0.7,0.4-1.5,0.5-2.4s0-1.7,0-2.6c0-0.6-0.2-1-0.4-1.3c-0.2-0.3-0.5-0.4-0.9-0.4c-0.5,0-0.9,0.2-1.4,0.5
				c-0.4,0.3-0.8,0.7-1.1,1.3c-0.5,1.1-0.9,2.1-1.2,3c-0.7,1.7-1.3,3.2-1.8,4.6c-0.5,1.3-0.9,2.5-1.2,3.5c-0.1,0.2-0.1,0.4-0.2,0.9
				c-0.1,0.4-0.2,1-0.4,1.6c-0.1,0.5-0.2,1-0.3,1.4c-0.1,0.4-0.3,0.7-0.4,1c0,0.4,0,0.8-0.1,1.1c-0.1,0.3-0.3,0.5-0.6,0.7
				c-0.6,0.3-1.1,0.6-1.4,0.8c-0.4,0.2-0.6,0.4-0.8,0.5c-0.9,1-1.7,1.7-2.2,2.3c-0.5,0.5-0.9,0.9-1.1,1.1c-0.4,0.5-0.8,1.1-1.3,1.7
				c-0.5,0.6-0.9,1.1-1.4,1.6c-0.2,0.3-0.4,0.5-0.6,0.6c-0.2,0.2-0.3,0.3-0.4,0.5c-0.5,0.6-0.9,1.2-1.2,1.6s-0.6,0.8-0.7,1.1
				l-0.4,0.3c-0.6,0.3-1.1,0.6-1.4,0.8c-0.3,0.2-0.6,0.4-0.7,0.5c-0.1,0.2-0.3,0.4-0.6,0.7c-0.3,0.3-0.5,0.7-0.9,1.2l-0.1,0.3
				l-0.2,0.2l0.3,0.6c-0.2,0.2-0.3,0.3-0.5,0.5c-0.4,0.3-0.7,0.6-0.9,0.8c-0.9,0.4-1.6,0.7-2.1,0.9c-0.5,0.2-0.8,0.3-0.9,0.3
				c-1.6,0.1-2.9-0.3-3.8-1.2c-0.9-1-1.4-2.5-1.6-4.5c0.6-1.1,1.2-2.3,1.7-3.5c0.4-0.8,0.8-1.4,1.1-2c0.3-0.6,0.6-1,0.8-1.4
				c0.2-0.4,0.3-0.8,0.4-1.1c0.1-0.3,0.2-0.6,0.3-0.8c0.3-0.5,0.5-0.9,0.7-1.2c0.2-0.3,0.3-0.6,0.4-0.9c0.2-0.5,0.4-0.9,0.5-1.3
				c0.1-0.4,0.2-0.7,0.2-1c0.2-0.4,0.4-0.8,0.6-1.1c0.2-0.3,0.3-0.6,0.4-0.8c0.2-0.8,0.5-1.6,0.6-2.3c0.2-0.7,0.3-1.3,0.4-1.9
				c0.2-0.6,0.4-1.1,0.5-1.6c0.1-0.4,0.2-0.8,0.3-1.1l-0.1-0.4c0.1-0.2,0.1-0.3,0.1-0.5c0-0.5,0-1.2,0.2-1.8
				c0.2-0.7,0.2-1.2,0.2-1.5c0-0.4,0-0.9,0-1.6c0.1-0.7,0.1-1.2,0-1.6c-0.1-1.3-0.4-2.2-0.9-2.6c-0.5-0.4-1.4-0.6-2.6-0.5
				c-0.6,0.1-1.3,0.5-2,1.4c-0.7,0.9-1.5,2.2-2.3,4c-0.6,1.3-1.2,2.6-1.7,3.9c-0.5,1.2-0.9,2.4-1.1,3.6c-0.2,0.7-0.5,1.3-0.6,1.8
				c-0.2,0.5-0.4,1-0.6,1.3c-0.5,2-0.9,3.9-1.2,5.6c-0.4,1.7-0.6,3.3-0.8,4.7l0.2,0.6c-0.1,0.2-0.2,0.9-0.3,2.1
				c-0.1,1.2-0.1,2-0.1,2.5c0.1,0.2,0.1,0.4,0.2,0.7c0,0.2,0,0.3,0,0.4c0,0.1,0,0.2-0.1,0.3l-1.9,2c-0.3,0.4-0.5,0.7-0.7,1.1
				c-0.2,0.3-0.3,0.6-0.5,0.8l0.3,0.6c-0.1,0.1-0.2,0.2-0.3,0.3c-0.3,0.3-0.6,0.6-0.9,0.9c-0.4,0.4-0.8,0.6-1.2,0.8
				c-0.4,0.2-0.8,0.3-1.2,0.3c-0.3,0-0.6,0-0.8-0.1c-0.2-0.1-0.4-0.2-0.5-0.4c-0.1-0.1-0.3-0.6-0.6-1.4c-0.3-0.8-0.5-1.5-0.7-1.9
				c-0.1-0.7-0.3-1.3-0.5-2c-0.2-0.7-0.4-1.3-0.6-1.9c-0.2-0.7-0.6-1.2-1.2-1.6c-0.5-0.3-1.2-0.5-1.9-0.4c-0.3,0-0.5,0.1-0.8,0.3
				c-0.3,0.2-0.5,0.4-0.7,0.8c-0.5,0.8-1.4,1.9-2.7,3.3c-1.2,1.2-2,2.2-2.5,3c-0.3-0.7-0.7-1.4-1.3-1.9c-1-0.9-2.4-1.6-4.3-2.1
				c-0.3-0.1-0.5-0.2-0.8-0.3c-0.2-0.1-0.4-0.2-0.6-0.2c-1.6-0.5-3.1-1-4.5-1.4c-1.4-0.4-2.6-0.7-3.8-1c-0.8-0.2-1.3-0.4-1.7-0.7
				c-0.4-0.3-0.6-0.7-0.6-1.1c0-0.2,0.3-0.6,1-1.2c0.7-0.6,1.6-1.3,2.9-2.1c1.5-1.1,3.1-2.2,4.7-3.4c0.3-0.3,0.6-0.6,0.9-0.8
				c0.2-0.3,0.4-0.5,0.6-0.6c1.6-1.4,2.9-2.4,3.8-3.2c0.9-0.8,1.3-1.2,1.4-1.3c0.9-0.9,1.5-1.9,1.9-3c0.4-1,0.5-2.1,0.4-3.2
				c0-0.6-0.2-1.1-0.4-1.6c-0.2-0.5-0.5-1-0.8-1.6c-0.4-0.5-0.8-0.9-1.3-1.2c-0.5-0.3-1-0.4-1.5-0.3c-0.3,0-0.6,0-0.9,0
				c-0.3-0.3-0.6-0.6-1-0.7c-0.4-0.2-0.9-0.2-1.6-0.2c-0.3,0.1-0.5,0.2-0.7,0.2c-1.1-0.1-2-0.2-2.6-0.3c-0.6-0.1-1-0.1-1.1-0.1
				c-0.5,0.1-0.9,0.2-1.3,0.3c-0.1,0.1-0.3,0.1-0.6,0c-0.3,0-0.5,0-0.6,0c-0.9,0.1-1.9,0.2-3,0.5c-1.1,0.2-2.2,0.5-3.3,0.9
				c-0.1,0.1-0.7,0.3-1.7,0.7c-1,0.4-2.4,0.9-4.3,1.6c-0.5,0.2-0.8,0.3-1,0.5c-0.2,0.2-0.3,0.3-0.3,0.4c0,0.3-0.1,0.5-0.2,0.8
				c-0.2,0.3-0.4,0.6-0.8,0.9c-0.1,0.1-0.1,0.4-0.1,0.7c0,0.3,0,0.7,0,1.1c0,0.1,0.1,0.2,0.2,0.3c0.1,0.1,0.3,0.1,0.6,0
				c0.8-0.1,1.9-0.4,3.4-1c1.5-0.6,2.6-1,3.4-1c0.3,0,0.5,0,0.6,0.1c0.1,0.1,0.2,0.2,0.2,0.4c0,0.1-0.1,0.3-0.2,0.6
				c-0.1,0.3-0.4,0.6-0.7,0.9c-0.4,0.5-0.7,0.9-1,1.2c-0.3,0.4-0.5,0.7-0.6,1c-0.2,0.6-0.4,1.2-0.5,1.8c-0.1,0.6-0.1,1.3-0.1,2
				c0,0.1,0,0.3,0.1,0.5c0.1,0.2,0.1,0.4,0.2,0.7c-0.1,1.5-0.2,2.9-0.2,4.1c-0.1,1.2-0.1,2.4-0.2,3.4c-1.1,0.7-1.9,1.3-2.5,1.8
				c-0.6,0.5-0.8,0.9-0.8,1.2c0.1,1,0.7,1.6,1.7,1.8c1.1,0.2,1.6,0.9,1.7,2.1c0,0.1,0,0.3,0,0.5c0,0.2,0,0.4,0,0.6l0.2,0.2l0.1,0.9
				c-0.1,0.3-0.2,1-0.2,2.2c0,1.1,0.1,2.7,0.3,4.7c0,0.1,0,0.4,0.1,0.6c0,0.3,0.1,0.9,0.2,1.9c0,0.3,0,0.5-0.2,0.8
				c-0.2,0.3-0.5,0.6-0.8,0.9c-0.5,0.4-0.9,0.8-1.3,1.1c-0.3,0.3-0.6,0.6-0.7,0.7c-0.3,0.2-0.5,0.4-0.6,0.5
				c-0.1,0.1-0.2,0.3-0.2,0.5c0,0.2,0.1,0.4,0.2,0.6c0.1,0.2,0.3,0.3,0.5,0.4c0.2,0.1,0.4,0.2,0.6,0.2c0.2,0.1,0.4,0.2,0.7,0.3
				l1.8-0.6c0.1,0,0.2,0,0.4,0.2c0.1,0.6,0.3,1,0.6,1.3c0.3,0.3,0.6,0.4,1,0.3c0.4,0,0.7-0.1,0.9-0.3c0.3-0.2,0.5-0.4,0.6-0.6
				c0.1-0.3,0.2-0.6,0.3-0.9c0.1-0.3,0.2-0.6,0.3-0.9c6.6-2.1,11.6-4.1,14.8-6.1c2.8-1.7,4.3-3.4,4.6-5c0.1,0.2,0.2,0.4,0.3,0.6
				c0.2,0.4,0.4,0.7,0.5,0.9c0.7-1,1.4-1.7,1.9-2.2c0.5-0.5,1-0.8,1.3-0.8c0.1,0,0.3,0.1,0.5,0.3c0.2,0.2,0.5,0.6,0.8,1
				c0.2,0.3,0.5,0.6,0.6,0.8c0.2,0.2,0.3,0.4,0.4,0.6c0.9,2,1.6,3.1,2.2,3.5s1.9,0.5,3.8,0.3c0.3,0,0.8-0.2,1.4-0.6
				c0.6-0.4,1.3-0.9,2.1-1.6c0.7-0.6,1.4-1.2,1.9-1.7c0.5-0.5,0.9-0.9,1.2-1.3l-0.4-0.6c0.2-0.2,0.4-0.5,0.6-0.7
				c0.3-0.4,0.6-0.8,0.9-1.1c0.2,0.2,0.4,0.3,0.4,0.5c0.1,0.1,0.2,0.3,0.2,0.5c0.5,1.9,1.1,3.2,2,4.1c0.9,0.9,1.9,1.3,3.1,1.2
				c0.4,0,0.9,0,1.6,0c0.7,0,1.2,0,1.6,0c0.7-0.1,1.3-0.3,2-0.6c0.7-0.3,1.3-0.8,1.9-1.4c0.5-0.5,1-1.1,1.5-1.6
				c0.2-0.3,0.5-0.5,0.7-0.8c0,0.4-0.1,1-0.4,1.7c-0.3,0.9-0.4,1.6-0.4,2.1c0.1,1.1,0.4,1.8,1,2.3c0.5,0.4,1.4,0.6,2.4,0.5
				c0.6-0.1,1.3-0.4,2-0.9c0.8-0.6,1.6-1.4,2.4-2.5c0.6-0.8,1.3-1.7,1.9-2.5s1.2-1.7,1.9-2.5c0.3-0.4,0.5-0.8,0.6-1.1
				c0.1-0.3,0.2-0.6,0.3-0.8c0.3-0.5,0.6-0.9,0.8-1.3c0.3-0.3,0.5-0.6,0.8-0.8c0.1-0.1,0.2-0.3,0.3-0.5c0.4,0.4,0.7,0.8,0.9,1.2
				c0.1,0.2,0.2,0.4,0.3,0.7c0.1,0.2,0.2,0.5,0.3,0.9c0.5,1.6,1.3,2.8,2.4,3.5c1.1,0.7,2.4,1,4,0.9c0.7-0.1,1.3-0.2,1.8-0.4
				c0.5-0.2,0.9-0.5,1.2-1c0.5-0.7,0.9-1.3,1.2-1.7c0.3-0.4,0.5-0.6,0.6-0.7c-0.1-0.3-0.3-0.6-0.4-0.9c0.1-0.2,0.2-0.4,0.2-0.5
				l1.6-2l0.2-0.1c0.1,0,0.3,0.1,0.4,0.4c0.1,0.3,0.2,0.8,0.3,1.4c0,0.1,0,0.5,0.1,1.1c0.1,0.6,0.3,1.4,0.6,2.5
				c0.3,1.1,0.7,1.9,1.4,2.5c0.6,0.5,1.4,0.7,2.4,0.7c0.7-0.1,1.3-0.3,2.1-0.8c0.7-0.5,1.4-1.1,2.1-2.1c0.5-0.7,1.1-1.4,1.6-2.1
				c0.5-0.7,1-1.4,1.5-2.2c0.2-0.3,0.5-0.6,0.7-1c0.2-0.3,0.4-0.6,0.6-0.8c0.2,0.2,0.4,0.5,0.6,0.7c0.2,0.2,0.3,0.5,0.3,0.7
				c0.4,1,1,1.8,1.7,2.3c0.7,0.5,1.6,0.7,2.7,0.6c0.4,0,1-0.3,1.8-0.7c0.8-0.5,1.8-1.1,3-2l-0.5-0.9c0,0,0,0,0,0
				c0.3-0.4,0.6-0.7,0.9-1c0.3-0.3,0.5-0.5,0.7-0.7c0.1-0.1,0.3-0.3,0.7-0.7c0.3-0.4,0.8-0.9,1.3-1.6c0.4-0.6,0.8-1,1.1-1.3
				c0.3-0.3,0.6-0.4,0.8-0.5c0.2,0,0.4,0,0.5,0.1c0.1,0.1,0.2,0.2,0.2,0.3c0,0.1,0,0.3,0,0.5c0,0.2-0.1,0.4-0.2,0.7
				c-0.1,0.3-0.1,0.5-0.2,0.7c-0.1,0.2-0.1,0.3-0.1,0.4c-0.4,1.8-0.7,3.4-1,4.8c-0.3,1.4-0.5,2.5-0.8,3.4c0.1,0.6,0.2,1.2,0.4,1.7
				c0.1,0.6,0.6,0.8,1.5,0.7c0.4,0,0.8-0.1,1.1-0.2c0.3-0.1,0.6-0.3,0.9-0.6c0.3-0.3,0.5-0.6,0.8-0.8c0.3-0.3,0.5-0.6,0.8-0.9
				c1-1.2,1.8-2.2,2.4-3.1c0.6-0.9,1.1-1.6,1.3-2.1c0.1-0.3,0.4-0.6,0.8-0.8c0.4-0.2,1-0.8,1.9-1.8c0.4-0.4,0.8-0.8,1.2-1.1
				c0.4-0.3,0.7-0.5,1.1-0.7l0.3,0.1c0.5,0.6,1,1.1,1.4,1.5c0.4,0.4,0.7,0.8,1,1c0.4,0.6,0.7,1.2,1,1.6c0.3,0.4,0.5,0.7,0.7,0.9
				c0.4,0.4,0.8,0.7,1.2,0.8c0.5,0.2,0.9,0.2,1.4,0.2c0.4,0,0.8-0.2,1.2-0.4c0.4-0.2,0.8-0.6,1.3-1c0.3-0.3,0.7-0.7,1-1
				c0.4-0.3,0.7-0.7,1-1l-0.4-0.7c0.2-0.3,0.4-0.5,0.7-0.8c0.2,0.3,0.3,0.5,0.3,0.6c0.2,1,0.6,1.9,1.2,2.8c0.6,0.9,1.3,1.8,2.1,2.7
				c0.8,0.8,1.6,1.7,2.4,2.7c0,0.3-0.1,0.6-0.2,1c-0.2,0.4-0.5,0.8-0.8,1.2c-0.5,0.6-1,1.3-1.6,2.1c-0.2,0.4-0.5,0.9-0.8,1.3
				c-0.3,0.4-0.5,0.9-0.8,1.4c-0.2,0.6-0.5,1.1-0.7,1.5c-0.2,0.5-0.4,0.9-0.5,1.4c-0.2,0.7-0.4,1.2-0.5,1.5
				c-0.1,0.4-0.1,0.6-0.1,0.8c0.1,1.3,0.2,2.4,0.4,3.2c0.1,0.8,0.3,1.3,0.4,1.6c0.3,0.5,0.8,0.9,1.5,1.2c0.7,0.2,1.6,0.3,2.7,0.2
				c2.4-0.2,4.9-1.6,7.4-4.3c2.5-2.7,3.8-5.2,3.8-7.6c0-0.3,0-0.6,0-0.8c0-0.2,0-0.4,0-0.5c-0.3-1.4-0.7-2.6-1.2-3.6
				C338.9,134,338.3,133.2,337.7,132.6z M189.5,117.2c0.1-0.6,0.2-1.5,0.3-2.6l-0.2-0.8c0.2-0.4,0.4-0.9,0.6-1.4
				c-0.1-0.7-0.1-1.3-0.1-1.9c0-0.6,0-1.1,0-1.6c0.1-0.9,0.3-1.5,0.4-2c0.1-0.5,0.3-0.8,0.4-1c0.2-0.3,0.5-0.5,1-0.6
				c0.5-0.2,1.1-0.3,1.9-0.3c0.1,0,0.4,0,0.8,0.1c0.4,0.1,1,0.2,1.7,0.3c0.9,0.1,1.6,0.2,2.1,0.3c0.6,0.1,0.9,0.2,1.2,0.3
				c0.7,0.2,1.2,0.5,1.5,0.9c0.4,0.4,0.5,0.8,0.6,1.3c0,0.3,0,0.6-0.2,1c-0.1,0.4-0.4,0.8-0.7,1.3c-0.2,0.3-0.5,0.7-0.7,1
				c-0.2,0.3-0.5,0.7-0.7,1.1c-0.1,0.1-0.6,0.4-1.3,1c-0.8,0.6-1.9,1.5-3.3,2.6c-1.3,1-2.3,1.8-3.1,2.4c-0.8,0.5-1.2,0.8-1.4,0.8
				c-0.2,0-0.4,0-0.6-0.1c-0.1-0.1-0.2-0.3-0.2-0.6C189.4,118.2,189.4,117.8,189.5,117.2z M200.8,135.1c-0.7,0.6-1.6,1.2-3,1.9
				c-3.1,1.7-4.8,2.7-4.9,2.8c-0.1,0.1-0.5,0.3-1.3,0.3c-1,0.3-1.9,0.7-2.8,1l-0.3-0.1l-0.1-0.3c0-0.6,0.1-1.2,0.2-1.7
				c0-1.1,0-2.1,0-3.2c0-1.1,0-2.1,0-3.2c0-1.1,0.2-2,0.4-2.6c0.2-0.6,0.5-0.9,0.8-0.9c0.1,0,0.3,0,0.5,0.1c0.3,0.1,0.6,0.2,1.1,0.4
				c0.3,0.1,0.6,0.1,0.8,0.2c0.2,0.1,0.5,0.1,0.7,0.1c1.5,0.3,2.8,0.7,4.1,1.1c1.2,0.4,2.4,0.9,3.4,1.4c0.4,0.2,0.7,0.4,0.9,0.6
				c0.2,0.2,0.3,0.4,0.3,0.6C201.7,134,201.4,134.5,200.8,135.1z M231.9,119.6c0.1-0.8,0.4-1.7,0.7-2.9c0.3-0.8,0.6-1.6,0.9-2.2
				c0.2-0.6,0.4-1,0.5-1.4c0.1-0.4,0.2-0.6,0.1-0.8c-0.1-0.9,0.1-1.9,0.6-3s1.3-2.2,2.4-3.4l0.2,0.1c0,0.4-0.1,0.8-0.2,1.2
				c-0.1,0.4-0.1,0.8-0.1,1.3c0,0.5-0.3,1.8-0.9,3.8c-0.6,2-1,3.2-1.3,3.7c-0.3,0.7-0.6,1.4-0.9,1.9c-0.3,0.5-0.5,1-0.6,1.4
				c-0.3,0.7-0.6,1.3-0.8,1.7c-0.2,0.4-0.5,0.6-0.6,0.6l-0.2-0.2C231.7,120.8,231.8,120.3,231.9,119.6z M255.7,123.1
				c-0.5,1.3-1.4,2.8-2.5,4.7c-1.1,1.7-2.1,3.1-2.9,4.1c-0.8,1-1.6,1.6-2.2,1.9c-0.2-0.1-0.3-0.3-0.3-0.4c0.2-0.7,0.4-1.2,0.6-1.7
				c0.6-1.2,1.1-2.2,1.5-3c0.4-0.8,0.7-1.4,1-1.7c0.9-1.2,1.5-2.1,2-2.9c0.5-0.8,0.8-1.3,0.9-1.7c0.6-0.6,1.1-1.1,1.5-1.5
				c0.4-0.5,0.8-0.9,1.1-1.2c0.1,0.2,0.2,0.4,0.2,0.5C256.5,120.8,256.3,121.8,255.7,123.1z M333.6,145.4c-1.6,1.9-3.1,2.9-4.8,3.1
				c-0.5,0-0.8,0-1.1-0.2c-0.2-0.2-0.4-0.5-0.4-0.9c0-0.2,0.1-0.8,0.3-1.7c0.2-0.9,0.4-1.5,0.6-1.7c0.4-0.7,0.8-1.5,1.2-2.2
				c0.4-0.8,0.8-1.5,1.1-2.2c0.7-1.2,1.2-2.2,1.6-2.8c0.4-0.6,0.7-0.9,0.8-1c0.3,0,0.6,0.1,0.8,0.4c0.3,0.3,0.6,0.7,0.9,1.3
				c0.3,0.5,0.5,1,0.6,1.5c0.2,0.4,0.3,0.8,0.3,1.2C335.8,141.8,335.1,143.5,333.6,145.4z M544.3,106.9c-0.7,0.7-1.2,1-1.3,1
				c-0.2,0-0.4-0.1-0.5-0.2c-0.1-0.2-0.2-0.4-0.2-0.7c0-0.4,0-1.1,0.1-2.2c0.1-1.1,0.2-2.6,0.4-4.4c0.4-2.3,0.7-4.2,1-5.9
				c0.3-1.7,0.6-3,0.9-4.1c0.1-0.4,0.1-0.8,0.2-1.1c0-0.3,0.1-0.6,0.1-0.8l2.1-0.6c0.3,0,0.4-0.4,0.5-1.1c0.1-0.7,0-1.7-0.1-2.9
				c0-0.3-0.1-0.5-0.1-0.7c-0.1-0.2-0.2-0.3-0.3-0.4c-0.2-0.1-0.3-0.2-0.4-0.3c-0.1-0.1-0.1-0.2-0.2-0.3c0-0.4,0.1-1,0.3-1.8
				c0.2-0.8,0.3-1.5,0.3-1.9c-0.1-0.6-0.2-1.1-0.5-1.4c-0.3-0.3-0.7-0.4-1.2-0.4c-1,0.1-1.8,1.1-2.4,3.2c-0.7,2-1.4,3.1-2.1,3.3
				l-1.1-0.2c-0.3,0.1-0.6,0.2-0.9,0.2c-0.3,0.1-0.5,0.2-0.8,0.2c-0.2,0-0.5-0.1-0.9-0.1c-0.4,0-0.9,0-1.5,0.1
				c-0.3,0.1-0.6,0.2-0.9,0.3c-0.4,0-0.9-0.1-1.4-0.1c-0.5,0-1.1,0-1.7,0.1c-0.6,0.1-1,0.4-1.2,1.2c-0.2,0.7-0.3,1.8-0.2,3.1
				c0,0.2,0.1,0.3,0.2,0.5c0.1,0.1,0.4,0.2,0.6,0.3c0.2,0.1,0.4,0.1,0.5,0.2c0.2,0.1,0.4,0.1,0.6,0.2c0.2,0,0.4,0,0.8,0
				c0.4,0,0.7,0,0.8,0l4-0.3c0.1,0,0.4-0.1,0.6-0.2c0.3-0.1,0.5-0.2,0.6-0.2c0.1,0,0.3,0,0.3,0.1s0.1,0.1,0.1,0.3
				c-0.2,0.6-0.4,1.1-0.6,1.5c-0.2,0.4-0.3,0.7-0.5,1c-1.2,2.6-2.4,5-3.6,7c-1.3,2-2.6,3.8-4,5.3c-0.2,0.4-0.5,0.7-0.6,0.9
				c-0.2,0.3-0.3,0.5-0.4,0.7l-0.1,0.3c0.1,0.1,0.2,0.1,0.2,0.2c0,0,0,0,0,0c-0.5,0-1-0.4-1.6-1.1c-0.7-0.8-1.6-2-2.5-3.6
				c-0.1-0.2-0.4-0.5-0.7-0.8c-0.3-0.3-0.8-0.7-1.3-1c-0.1-0.1-0.2-0.1-0.3-0.2c-0.1-0.1-0.2-0.1-0.3-0.1c-0.6,0.1-1.2,0.2-1.8,0.5
				c-0.6,0.3-1.2,0.7-1.7,1.2c-0.5,0.5-1,0.9-1.5,1.4c-0.4,0.4-0.9,0.9-1.3,1.3c-0.3,0.4-0.5,0.8-0.7,1.1c-0.2,0.3-0.4,0.5-0.5,0.7
				c-0.3-0.1-0.4-0.2-0.4-0.4c0-0.1,0-0.3,0-0.4c0-0.1,0-0.3,0.1-0.5c0.4-1.1,0.6-2.3,0.7-3.5c0.1-1.2,0.1-2.4,0-3.7
				c-0.1-0.9-0.3-1.5-0.6-2c-0.3-0.4-0.8-0.6-1.4-0.6c-0.6,0-1.3,0.5-2.2,1.2c-0.9,0.8-1.9,1.9-3.1,3.4c-1.3,1.7-2.4,3.1-3.2,4.1
				c-0.8,1-1.4,1.6-1.7,1.7c-0.1,0-0.3,0-0.3-0.1c-0.1-0.1-0.1-0.2-0.1-0.3c0.1-0.5,0.2-1.1,0.3-1.7c0.1-0.7,0.2-1.4,0.2-2.1
				c0-0.7,0-1.3,0-1.9c-0.1-0.7-0.2-1.2-0.6-1.6c-0.3-0.3-0.7-0.5-1.3-0.4c-0.9,0.5-1.7,0.9-2.4,1.2c-0.7,0.8-1.3,1.6-1.8,2.2
				c-0.5,0.6-1,1.2-1.3,1.6c-0.7,0.8-1.5,1.7-2.3,2.7c-0.8,1-1.6,2.1-2.4,3.3c-0.2,0.3-0.4,0.6-0.5,0.9c-0.1,0.3-0.3,0.5-0.4,0.6
				c0,0.1,0.1,0.1,0.1,0.2c-0.4-0.1-0.9-0.4-1.5-1.1c-0.7-0.8-1.6-2-2.5-3.6c-0.1-0.2-0.4-0.5-0.7-0.8c-0.3-0.3-0.8-0.7-1.3-1
				c-0.1-0.1-0.2-0.1-0.3-0.2c-0.1-0.1-0.2-0.1-0.3-0.1c-0.6,0.1-1.2,0.2-1.8,0.5c-0.6,0.3-1.2,0.7-1.7,1.2c-0.5,0.5-1,0.9-1.5,1.4
				c-0.4,0.4-0.9,0.9-1.3,1.3c-0.3,0.4-0.5,0.8-0.7,1.1c-0.2,0.3-0.4,0.5-0.5,0.7c-0.3-0.1-0.4-0.2-0.4-0.4c0-0.1,0-0.3,0-0.4
				c0-0.1,0-0.3,0.1-0.5c0.4-1.1,0.6-2.3,0.7-3.5c0.1-1.2,0.1-2.4,0-3.7c-0.1-0.9-0.3-1.5-0.6-2c-0.3-0.4-0.8-0.6-1.4-0.6
				c-0.6,0-1.3,0.5-2.2,1.2c-0.9,0.8-1.9,1.9-3.1,3.4c-1.3,1.7-2.4,3.1-3.2,4.1c-0.8,1-1.4,1.6-1.7,1.7c-0.1,0-0.3,0-0.3-0.1
				c-0.1-0.1-0.1-0.2-0.1-0.3c0.1-0.5,0.2-1.1,0.3-1.7c0.1-0.7,0.2-1.4,0.2-2.1c0-0.7,0-1.3,0-1.9c-0.1-0.7-0.2-1.2-0.6-1.6
				c-0.3-0.3-0.7-0.5-1.3-0.4c-0.9,0.5-1.7,0.9-2.4,1.2c-0.7,0.8-1.3,1.6-1.8,2.2c-0.5,0.6-1,1.2-1.3,1.6c-0.7,0.8-1.5,1.7-2.3,2.7
				c-0.8,1-1.6,2.1-2.4,3.3c-0.2,0.3-0.4,0.6-0.5,0.9c-0.1,0.3-0.3,0.5-0.4,0.6c0.1,0.2,0.2,0.3,0.3,0.5c-0.1,0.1-0.3,0.1-0.4,0.1
				c-0.2,0-0.3,0-0.4-0.1c-0.1-0.1-0.2-0.3-0.3-0.6c0.2-0.2,0.4-0.5,0.6-1c0.2-0.4,0.4-1,0.5-1.6c0.1-0.6,0.2-1.1,0.3-1.6
				c0-0.5,0-0.9,0-1.3c-0.2-1.9-0.7-3.3-1.5-4.1c-0.9-0.9-2-1.2-3.6-1.1c-0.1,0-0.5,0.1-1,0.3c-0.5,0.2-1.2,0.5-2.1,1l-0.2-0.3
				c0.2-0.5,0.4-1,0.5-1.5c0-0.2-0.2-0.4-0.4-0.5c-0.3-0.1-0.6-0.1-1.1-0.1c-0.4,0-0.8,0.2-1.1,0.4c-0.3,0.2-0.7,0.5-1,0.8
				c-0.3,0.3-0.5,0.6-0.8,1c-0.3,0.3-0.5,0.7-0.8,1c-0.2,0.3-0.5,0.5-0.8,0.8c-0.3,0.3-0.5,0.6-0.8,0.8c-0.3,0.3-0.6,0.6-0.8,1
				c-0.2,0.3-0.4,0.6-0.5,0.8c-0.8,0.9-1.5,1.6-2.1,2.2c-0.6,0.6-1,1.1-1.2,1.5l-2.3,1.9c-0.2,0.3-0.3,0.6-0.5,0.9
				c-0.1,0.3-0.3,0.5-0.4,0.6c0.1,0.2,0.2,0.4,0.3,0.6c0,0-0.1,0.1-0.1,0.1c-0.2,0.3-0.5,0.5-0.7,0.7c-0.3,0.3-0.6,0.6-0.9,0.7
				c-0.3,0.2-0.5,0.2-0.7,0.3c-0.6,0.1-1.5-0.4-2.6-1.5c-1.1-1-1.6-1.8-1.7-2.4c-0.1-0.8,0.7-2.5,2.3-5.1c1.6-2.6,2.3-4.7,2.2-6.4
				c-0.1-0.6-0.2-1.1-0.4-1.4c-0.2-0.3-0.6-0.4-1.1-0.4c-0.2,0-0.5,0.3-0.9,0.9c-0.4,0.6-0.8,1.5-1.4,2.6c-1,2.2-1.7,3.9-2.3,5
				c-0.6,1.1-1,1.7-1.1,1.8c-1.3,0.4-2.2,0.9-2.6,1.5c-0.4,0.6-0.7,1.6-0.7,3l0,0.9c-0.3,1-0.7,1.8-1,2.6c-0.3,0.8-0.7,1.5-1.1,2.2
				c-0.1,0.2-0.2,0.4-0.3,0.6c-0.1,0.1-0.3,0.2-0.5,0.2c-0.1,0-0.2,0-0.2-0.1c-0.1-0.1-0.1-0.2-0.1-0.3c0-0.2,0-0.6,0.1-1.3
				c0.1-0.7,0.3-1.6,0.5-2.7c0.3-1.2,0.5-2.4,0.7-3.6c0.2-1.2,0.5-2.4,0.7-3.6c0.3-1.5,0.6-2.9,1-4.1c0.3-1.2,0.7-2.2,1-3
				c1.6-3.7,2.7-6.9,3.4-9.4c0.7-2.6,1-4.6,0.9-6c-0.1-1.3-0.4-2.2-0.9-2.8c-0.5-0.6-1.1-0.9-2-0.8c-0.2,0-0.3,0.1-0.5,0.2
				c-0.1,0.1-0.3,0.3-0.4,0.5c-0.4,0.8-0.7,1.6-1,2.5c-0.3,0.9-0.6,1.8-0.8,2.8c-0.1,0.3-0.1,0.6-0.3,0.9c-0.1,0.2-0.2,0.4-0.3,0.6
				c-0.2,0.4-0.4,1.1-0.8,2.1c-0.3,1-0.7,2.4-1.2,4c-0.5,1.7-0.9,3.1-1.2,4.2c-0.3,1.1-0.5,1.9-0.6,2.4c-0.4,0.5-0.8,1.3-1.2,2.2
				c-0.4,1-0.9,2.1-1.4,3.5c-0.4,1-0.8,1.9-1.2,2.6c-0.4,0.8-0.9,1.4-1.4,2c-0.3,0.3-0.5,0.6-0.8,0.9c-0.2,0.3-0.4,0.5-0.5,0.7
				c-0.1,0.3-0.2,0.5-0.2,0.6c-0.1,0.1-0.2,0.2-0.2,0.3c0.1,0.1,0.2,0.1,0.2,0.2c0.1,0.1,0.1,0.2,0.1,0.2c-0.2,0.1-0.4,0.2-0.7,0.2
				c-0.4,0-0.7-0.1-1-0.4c-0.3-0.3-0.6-0.8-0.9-1.4c-0.5-1.1-1-2.3-1.5-3.5c-0.4-0.6-0.9-1.1-1.4-1.4c-0.5-0.3-1.1-0.4-1.8-0.3
				c-0.3,0-0.7,0.1-1.2,0.4c-0.4,0.2-0.9,0.5-1.5,0.8c-0.5,0.4-0.9,0.7-1.3,1c-0.4,0.3-0.7,0.6-0.9,0.9c-0.2,0.2-0.3,0.4-0.4,0.6
				c-0.1,0.2-0.2,0.3-0.3,0.4c-0.4,0.3-0.7,0.7-0.9,1.1c-0.3,0.4-0.5,0.7-0.7,1.1c-0.4,0.5-0.8,0.9-1.2,1.3
				c-0.3,0.4-0.5,0.7-0.7,1.1c-0.1,0.2-0.2,0.3-0.3,0.4c-0.1,0.1-0.2,0.2-0.3,0.3c-0.2-0.2-0.3-0.3-0.3-0.5c0-0.1,0-0.3,0-0.5
				c0-0.2,0.1-0.5,0.2-0.7c0.1-0.4,0.3-0.8,0.4-1.2c0.6-2.3,1-4.2,1.2-5.6c0.2-1.4,0.3-2.3,0.3-2.8c-0.1-0.9-0.3-1.6-0.7-2
				c-0.4-0.4-1-0.6-1.7-0.6c-0.8,0.1-1.5,0.3-2.1,0.7c-0.6,0.4-1.2,1-1.8,1.7c-0.6,0.8-1.2,1.6-1.6,2.2c-0.5,0.6-0.8,1.1-1.1,1.5
				c-0.7,1-1.3,1.8-1.8,2.4c-0.5,0.7-0.9,1.2-1.3,1.7c-0.4,0.5-0.7,0.9-1,1.2c-0.3,0.3-0.6,0.6-0.8,0.8c-0.2,0.3-0.3,0.5-0.4,0.7
				c-0.1,0.2-0.2,0.4-0.3,0.5c0.1,0.2,0.2,0.4,0.3,0.5c0,0,0,0-0.1,0c-0.1,0.2-0.3,0.4-0.4,0.5c-0.1,0.2-0.2,0.4-0.4,0.6
				c-0.2,0.2-0.3,0.3-0.5,0.5c-0.2,0.1-0.4,0.2-0.5,0.2c-0.6,0.1-1.2-0.2-1.6-0.7c-0.4-0.5-0.7-1.1-0.7-1.8c-0.1-1-0.2-2-0.2-3
				c-0.1-0.7-0.3-1.2-0.5-1.5c-0.3-0.3-0.6-0.5-1.1-0.4c-0.7,0.1-1.5,0.4-2.3,1c-0.8,0.6-1.6,1.6-2.5,2.8c-0.2,0.1-0.3,0.3-0.5,0.4
				c-0.1,0.1-0.3,0.2-0.4,0.3c-0.2,0.1-0.5,0.4-0.9,0.9c-0.4,0.4-1,1-1.6,1.7c-0.6,0.6-1.1,1.2-1.6,1.6c-0.5,0.4-0.9,0.7-1.4,0.9
				l-0.2-0.3c0.5-0.9,1-1.7,1.3-2.2c0.3-0.6,0.6-0.9,0.7-1.1c1.1-1.1,2-2.1,2.6-2.9c0.6-0.8,1-1.4,1.2-1.9c0.5-0.4,0.8-0.7,1.1-1
				c0.3-0.3,0.5-0.5,0.6-0.6c0.1-0.2,0.3-0.5,0.5-0.8c0.6-0.5,1.1-1.1,1.6-1.6c0.4-0.5,0.8-1,1.1-1.5c0.6-0.5,1.1-1,1.6-1.4
				c0.3-0.3,0.5-0.6,0.7-0.9c0.1-0.3,0.2-0.7,0.1-1.2c0-0.4-0.2-0.7-0.5-0.9c-0.3-0.2-0.7-0.3-1.2-0.2c-1,0.1-2.2,0.6-3.5,1.7
				c-1.4,1-2.9,2.5-4.7,4.5c-0.4,0.4-0.8,0.8-1.1,1.1c-0.3,0.3-0.6,0.5-0.8,0.6c-0.4,0.5-0.8,0.9-1.1,1.2c-0.3,0.3-0.5,0.6-0.7,0.9
				c-0.3,0.2-0.6,0.4-0.8,0.6c-0.2,0.2-0.4,0.5-0.5,0.7c-0.2,0.4-0.3,0.6-0.4,0.8c-0.1,0.2-0.2,0.3-0.3,0.5l-2.7,2.1
				c-0.2,0.4-0.3,0.7-0.5,0.9c-0.1,0.3-0.2,0.4-0.3,0.5c0.2,0.4,0.4,0.8,0.6,1.1c0.2,0.4,0.4,0.7,0.5,1c0.1,0.1,0.2,0.3,0.2,0.4
				c0.1,0.1,0.1,0.2,0.1,0.3c0,0.2,0,0.4,0,0.7c-0.4,0.5-0.8,1.1-1,1.6c-0.2,0.5-0.3,1.1-0.2,1.7c0.1,1,0.4,1.8,0.9,2.2
				c0.5,0.5,1.3,0.6,2.3,0.5c0.1,0,0.4-0.1,0.7-0.3c0.3-0.2,0.7-0.4,1.1-0.7c0.7-0.4,1.3-0.9,1.8-1.3c0.5-0.4,1-0.8,1.4-1.2
				c0.2-0.2,0.5-0.6,1-1.1c0.5-0.5,1-1.2,1.7-2c0.5-0.5,1-0.9,1.3-1.3c0.4-0.4,0.7-0.6,1-0.9c0.2-0.2,0.3-0.4,0.4-0.5
				c0.1-0.1,0.2-0.2,0.3-0.4c0.2,0.2,0.3,0.4,0.4,0.6c0.1,0.2,0.1,0.4,0.1,0.6c0.3,1.6,0.8,2.7,1.6,3.4c0.8,0.7,1.9,1,3.3,0.9
				c0.6-0.1,1.2-0.2,1.7-0.5c0.6-0.3,1.2-0.7,1.7-1.2c0.5-0.5,1-1,1.4-1.5c0.4-0.5,0.9-1,1.3-1.5c-0.1-0.3-0.3-0.6-0.4-0.9
				c0.3-0.4,0.6-0.7,0.9-1c0.3-0.3,0.5-0.5,0.7-0.7c0.1-0.1,0.3-0.3,0.7-0.7c0.3-0.4,0.8-0.9,1.3-1.6c0.4-0.6,0.8-1,1.1-1.3
				c0.3-0.3,0.6-0.4,0.8-0.5c0.2,0,0.4,0,0.5,0.1c0.1,0.1,0.2,0.2,0.2,0.3c0,0.1,0,0.3,0,0.5c0,0.2-0.1,0.4-0.2,0.7
				c-0.1,0.3-0.1,0.5-0.2,0.7c-0.1,0.2-0.1,0.3-0.1,0.4c-0.4,1.8-0.7,3.4-1,4.8c-0.3,1.4-0.5,2.5-0.8,3.4c0.1,0.6,0.2,1.2,0.4,1.7
				c0.1,0.6,0.6,0.8,1.5,0.7c0.4,0,0.8-0.1,1.1-0.2c0.3-0.1,0.6-0.3,0.9-0.6c0.3-0.3,0.5-0.6,0.8-0.8c0.3-0.3,0.5-0.6,0.8-0.9
				c1-1.2,1.8-2.2,2.4-3.1c0.6-0.9,1.1-1.6,1.3-2.1c0.1-0.3,0.4-0.6,0.8-0.8c0.4-0.2,1-0.8,1.9-1.8c0.4-0.4,0.8-0.8,1.2-1.1
				c0.4-0.3,0.7-0.5,1.1-0.7l0.3,0.1c0.5,0.6,1,1.1,1.4,1.5c0.4,0.4,0.7,0.8,1,1c0.4,0.6,0.7,1.2,1,1.6c0.3,0.4,0.5,0.7,0.7,0.9
				c0.4,0.4,0.8,0.7,1.2,0.8c0.5,0.2,0.9,0.2,1.4,0.2c0.4,0,0.8-0.2,1.2-0.4c0.4-0.2,0.8-0.6,1.3-1c0.3-0.3,0.7-0.7,1-1
				c0.4-0.3,0.7-0.7,1-1l-0.5-0.8c0,0,0,0,0,0c0.1-0.2,0.2-0.3,0.2-0.4c0.5-0.7,1-1.3,1.3-1.8c0.4-0.5,0.7-0.9,0.9-1.3l0.2,0.3
				c0,0.3,0,0.7,0,1.2c0,0.5-0.1,1-0.2,1.6c-0.3,1.3-0.4,2.5-0.5,3.6c-0.1,1.2-0.1,2.2,0,3.2c0.1,1,0.4,1.7,0.8,2.2
				c0.5,0.4,1.1,0.6,2,0.6c0.5,0,1-0.3,1.3-0.7c0.3-0.4,0.6-0.9,0.9-1.3c0.3-0.3,0.5-0.6,0.7-0.8c0.2-0.2,0.4-0.4,0.5-0.6
				c0.3-0.5,0.7-1,1-1.4c0.3-0.5,0.7-0.9,1-1.4c0.5-0.8,1.2-1.5,1.9-2.3c0.1,0,1,0.6,2.6,1.7c1.6,1.2,2.8,1.7,3.4,1.7
				c0.6-0.1,1.2-0.2,1.8-0.6c0.6-0.3,1.2-0.8,1.7-1.5c0.5-0.5,1-1,1.4-1.6c0.5-0.5,0.9-1.1,1.4-1.6l-0.5-0.9c0,0,0,0,0,0
				c0.7-0.7,1.2-1.2,1.6-1.5c0.4-0.4,0.6-0.5,0.7-0.5c0.2,0,0.3,0,0.4,0.1c0.1,0.1,0.2,0.2,0.2,0.4c0,0.1-0.1,0.6-0.2,1.5
				c-0.2,0.9-0.2,1.5-0.2,2c0.1,1.2,0.7,2.3,1.8,3.2c1.1,0.9,2.2,1.3,3.4,1.2c0.2,0,0.4-0.1,0.7-0.2c0.3-0.1,0.5-0.2,0.6-0.2
				c0.4,0,0.7-0.1,1.2-0.3c0.4-0.2,0.9-0.4,1.4-0.7c0.9-0.5,1.7-1,2.4-1.7c0.7-0.6,1.3-1.3,1.7-2.1c0.2,0.4,0.5,0.7,0.8,0.9
				c0.3,0.2,0.7,0.3,1.2,0.2c0.4,0,0.8-0.2,1.3-0.4c0.4-0.2,0.9-0.5,1.3-1c0.4-0.3,0.7-0.7,1.1-1c0.3-0.3,0.7-0.7,1-1.1
				c-0.2-0.3-0.3-0.6-0.5-0.9c0.6-0.6,1-1.2,1.4-1.7c0.4-0.5,0.7-0.9,1-1.3c0.4-0.6,0.7-1.1,1.1-1.4c0.3-0.3,0.6-0.5,0.9-0.5
				c0.1,0,0.3,0,0.4,0.1c0.1,0.1,0.2,0.2,0.2,0.4c0.1,0.9-0.2,2.5-0.7,4.7c-0.6,2.3-0.8,3.7-0.7,4.4c0,0.3,0.2,0.5,0.5,0.6
				c0.3,0.1,0.8,0.2,1.5,0.1c0.2,0,0.7-0.4,1.3-1.2c0.7-0.8,1.6-1.9,2.7-3.5c0.7-1,1.4-1.9,2.1-2.8c0.7-0.9,1.4-1.9,2-2.8
				c0.6-0.6,1.1-1,1.4-1.3c0.3-0.3,0.5-0.6,0.8-0.9c0.2-0.2,0.4-0.4,0.6-0.5c0.2-0.1,0.3-0.2,0.5-0.2c0.2,0,0.3,0,0.5,0.2
				c0.1,0.1,0.2,0.3,0.2,0.5c-0.1,1.3-0.1,2.4-0.2,3.2c0,0.8-0.1,1.4-0.1,1.6c0,0.2-0.1,0.6-0.2,1.1c-0.1,0.5-0.3,1.3-0.5,2.2
				c-0.2,0.7-0.3,1.3-0.3,1.9c-0.1,0.5-0.1,0.9-0.1,1.3c0,0.3,0.1,0.5,0.2,0.7c0.1,0.2,0.2,0.3,0.4,0.4c0.5,0,1,0,1.3,0
				c0.6-0.1,2.1-1.8,4.4-5.3c2.3-3.4,4-5.2,5.1-5.3c0.8-0.1,2.1,0.8,3.8,2.5c1.7,1.7,3.3,2.6,4.8,2.4c0.4,0,0.9-0.2,1.5-0.6
				c0.6-0.4,1.2-0.9,1.9-1.5c-0.1-0.3-0.3-0.6-0.5-0.9c0,0,0,0,0,0c0.6-0.6,1-1.2,1.4-1.7c0.4-0.5,0.7-0.9,1-1.3
				c0.4-0.6,0.7-1.1,1.1-1.4c0.3-0.3,0.6-0.5,0.9-0.5c0.1,0,0.3,0,0.4,0.1c0.1,0.1,0.2,0.2,0.2,0.4c0.1,0.9-0.2,2.5-0.7,4.7
				c-0.6,2.3-0.8,3.7-0.7,4.4c0,0.3,0.2,0.5,0.5,0.6c0.3,0.1,0.8,0.2,1.5,0.1c0.2,0,0.7-0.4,1.3-1.2c0.7-0.8,1.6-1.9,2.7-3.5
				c0.7-1,1.4-1.9,2.1-2.8c0.7-0.9,1.4-1.9,2-2.8c0.6-0.6,1.1-1,1.4-1.3c0.3-0.3,0.5-0.6,0.8-0.9c0.2-0.2,0.4-0.4,0.6-0.5
				c0.2-0.1,0.3-0.2,0.5-0.2c0.2,0,0.3,0,0.5,0.2c0.1,0.1,0.2,0.3,0.2,0.5c-0.1,1.3-0.1,2.4-0.2,3.2c0,0.8-0.1,1.4-0.1,1.6
				c0,0.2-0.1,0.6-0.2,1.1c-0.1,0.5-0.3,1.3-0.5,2.2c-0.2,0.7-0.3,1.3-0.3,1.9c-0.1,0.5-0.1,0.9-0.1,1.3c0,0.3,0.1,0.5,0.2,0.7
				c0.1,0.2,0.2,0.3,0.4,0.4c0.5,0,1,0,1.3,0c0.6-0.1,2.1-1.8,4.4-5.3c2.3-3.4,4-5.2,5.1-5.3c0.8-0.1,2.1,0.8,3.8,2.5
				c1.7,1.7,3.3,2.6,4.8,2.4c0.4,0,0.9-0.2,1.5-0.6c0.6-0.4,1.2-0.9,1.9-1.5c-0.1-0.3-0.3-0.6-0.4-0.8c0.1-0.2,0.2-0.3,0.3-0.4
				c1-1.1,2-2.3,3-3.4c0.6-0.7,1.2-1.3,1.7-1.9c0.5-0.6,0.8-1.2,1.1-1.7l0.3-0.2c0.2,0.1,0.3,0.2,0.3,0.3c-0.2,0.6-0.4,1.1-0.6,1.7
				c-0.1,0.8-0.1,1.7-0.2,2.5c0,0.5-0.1,0.9-0.1,1.3c0,0.4,0,0.6,0,0.9c0,0.1-0.1,0.3-0.2,0.5c-0.1,0.6-0.2,1.3-0.2,2.2
				c0,0.9,0,2,0.2,3.2c0.1,1.1,0.4,1.9,0.9,2.4c0.5,0.5,1.2,0.7,2.1,0.6c0.4,0,0.9-0.2,1.3-0.5c0.5-0.3,0.9-0.7,1.4-1.3
				c0.3-0.4,0.7-0.9,1-1.3c0.3-0.5,0.7-0.9,1-1.4c0.3-0.4,0.7-0.8,1-1.1c0.3-0.3,0.5-0.6,0.7-0.8c0.5-0.4,0.9-0.8,1.3-1.1
				c0.4-0.3,0.6-0.6,0.8-0.9l-1.5-2.8C546.1,105.2,545,106.2,544.3,106.9z M447.7,111.2c-0.1,0.4-0.1,0.8-0.2,1.1
				c-0.1,0.3-0.2,0.5-0.4,0.7c-0.3,0.4-0.5,0.8-0.9,1.2c-0.6,1.1-1.3,2-2.1,2.6c-0.8,0.6-1.6,1-2.6,1c-0.6,0.1-1.1-0.1-1.4-0.3
				c-0.3-0.3-0.5-0.7-0.6-1.3c0-0.3,0-0.7,0.1-1.2c0.1-0.5,0.2-1,0.4-1.7c0.2-0.8,0.4-1.3,0.5-1.7c0.2-0.4,0.4-0.6,0.6-0.7
				c0.3-0.1,0.6-0.2,0.9-0.4c0.3-0.2,0.5-0.4,0.7-0.6c0.3-0.6,0.6-1.2,0.9-1.7c0.2-0.3,0.3-0.6,0.5-0.8c0.2-0.2,0.3-0.3,0.4-0.4
				c0.7,0,1.2,0.1,1.6,0.1c0.4,0,0.6,0.1,0.7,0.1c0.2,0.1,0.4,0.3,0.6,0.6c0.2,0.4,0.4,0.8,0.7,1.5L447.7,111.2z M573.5,105.4
				c-0.4-0.1-0.9-0.2-1.6-0.1c-0.9,0.1-1.8,0.6-2.6,1.5c-0.9,0.9-1.3,1.8-1.2,2.6c0.1,0.9,0.3,1.6,0.5,2c0.3,0.4,0.7,0.6,1.1,0.6
				c0.3,0,0.8-0.1,1.4-0.4c0.6-0.2,1.1-0.3,1.4-0.4c0.4,0,0.8-0.1,1-0.3s0.4-0.4,0.5-0.6c0-0.3,0.1-0.6,0-0.9c0-0.3,0-0.6,0-0.9
				l0.1-2.5C574.1,105.7,573.9,105.5,573.5,105.4z M576.2,66.8c0-0.5-0.1-0.9-0.3-1.2c-0.1-0.3-0.3-0.4-0.6-0.3
				c-0.3,0-0.7,0.2-1.1,0.4c-0.4,0.2-0.9,0.6-1.4,1c-0.3,0.3-0.6,0.6-0.9,1c-0.3,0.3-0.7,0.6-1.1,1c-0.1,0.1-0.3,0.1-0.4,0.2
				c-0.1,0.1-0.2,0.1-0.3,0.2c-0.2,0.1-0.5,0.3-0.6,0.6c-0.2,0.3-0.3,0.7-0.5,1.2c-0.1,0.4-0.2,0.8-0.3,1.2c0,0.4,0,0.7,0,1l0.2,1.7
				c0.1,0.4,0,1.1-0.2,2.1c-0.2,1-0.3,1.7-0.3,2.2l0.1,0.4l0.6,0.3c0.1,0,0.3,0,0.4-0.1c0.1,1.2,0.2,1.9,0.3,2.2
				c0.1,0.3,0.1,0.5,0.1,0.7c0,0.4,0,0.8-0.1,1.3c-0.1,0.5-0.2,1.2-0.4,1.9c0.1,0.5,0.2,1.1,0.1,1.7c0,0.6-0.2,1.2-0.3,1.9
				c0,0.2,0,0.4,0.1,0.6c0,0.2,0,0.4,0,0.6c0,0.5,0,0.9,0,1.1c0,0.2,0,0.3,0,0.2c0,0.5,0.1,1,0.2,1.5c0,0.1,0,0.3,0,0.6
				c0,0.2-0.1,0.5-0.1,0.7c-0.1,0.3-0.2,0.7-0.3,1.2c0,0.4,0,0.9,0,1.3c0,0.4,0,0.9,0.1,1.4c0.1,0.7,0.3,1.4,0.4,2.2l-0.2,1.3
				c0,0.1,0,0.4,0.1,0.7c0,0.3,0.1,0.5,0.1,0.6c0.1,0.1,0.2,0.2,0.5,0.2c0.4,0,1-0.5,2-1.6s1.5-1.7,1.5-2.1c0-1.4,0-2.5,0.1-3.3
				c0-0.8,0.1-1.2,0.1-1.4c0.1-0.2,0.2-0.3,0.2-0.5c0-0.2,0.1-0.3,0.1-0.4c0-0.5,0-0.9,0.1-1.2c0-0.3,0-0.6,0-0.8
				c0.2-2.6,0.4-4.9,0.6-6.9c0.2-2,0.3-3.6,0.4-4.9c0.2-1.9,0.3-3.5,0.4-4.7c0.1-1.2,0.1-2.1,0.1-2.5c0-0.3,0-0.7,0.1-1.2
				c0.1-0.5,0.1-1.1,0.3-1.8c0.1-0.7,0.2-1.3,0.2-1.8C576.3,67.6,576.3,67.2,576.2,66.8z"/>
		</g>
	</g>
</g>
<g id="Gewaltfrei_Lernen_1_" enable-background="new    ">
	<g id="Gewaltfrei_Lernen">
		<g>
			<path fill-rule="evenodd" clip-rule="evenodd" fill="#00386C" d="M28.1,35.6h12.2c-0.4,3.8-1.6,6.8-3.8,8.8c-2.2,2-5.3,3-9.3,3
				c-2.7,0-5.1-0.5-7-1.6c-1.9-1.1-3.5-2.5-4.6-4.2c-1.2-1.7-2-3.7-2.6-5.9c-0.5-2.2-0.8-4.4-0.8-6.7c0-2.4,0.3-4.7,0.8-7
				c0.5-2.3,1.4-4.3,2.6-6c1.2-1.8,2.7-3.2,4.6-4.2c1.9-1.1,4.2-1.6,7-1.6c2.9,0,5.4,0.8,7.5,2.3c2.1,1.5,3.5,3.8,4.2,6.9h11.6
				c-0.3-3.1-1.2-5.9-2.6-8.3c-1.4-2.4-3.2-4.4-5.3-6.1c-2.1-1.6-4.5-2.9-7.2-3.7C32.7,0.4,30,0,27.1,0c-4.2,0-8,0.7-11.4,2.2
				c-3.4,1.5-6.2,3.5-8.5,6.2c-2.3,2.6-4.1,5.7-5.3,9.2C0.6,21.1,0,24.9,0,29c0,4,0.6,7.7,1.9,11.2c1.2,3.5,3,6.5,5.3,9
				c2.3,2.6,5.2,4.6,8.5,6c3.4,1.5,7.2,2.2,11.4,2.2c2.7,0,5.3-0.6,8-1.7c2.6-1.1,5-3,7.2-5.8l1.2,6.2h7.7V26.6H28.1V35.6z
				 M92.4,22.6c-1.6-2.2-3.7-4-6.2-5.3c-2.5-1.3-5.5-2-8.9-2c-3,0-5.8,0.5-8.3,1.6c-2.5,1.1-4.7,2.6-6.5,4.4
				c-1.8,1.9-3.2,4.1-4.2,6.7c-1,2.6-1.5,5.3-1.5,8.3c0,3.1,0.5,5.9,1.4,8.5c1,2.6,2.3,4.8,4.1,6.6c1.8,1.8,3.9,3.3,6.4,4.3
				c2.5,1,5.4,1.5,8.5,1.5c4.5,0,8.4-1,11.6-3.1C92,52.2,94.4,48.7,96,44h-9.7c-0.4,1.2-1.3,2.4-2.9,3.5c-1.6,1.1-3.5,1.7-5.7,1.7
				c-3.1,0-5.5-0.8-7.1-2.4c-1.7-1.6-2.6-4.2-2.7-7.7h28.8c0.2-3.1-0.1-6-0.8-8.9C95.2,27.4,94,24.8,92.4,22.6z M67.8,32.1
				c0.1-0.8,0.2-1.6,0.5-2.6c0.3-1,0.8-1.9,1.5-2.8c0.7-0.9,1.6-1.6,2.8-2.2c1.2-0.6,2.6-0.9,4.4-0.9c2.7,0,4.7,0.7,6,2.2
				c1.3,1.4,2.2,3.5,2.7,6.3H67.8z M141.7,43.4h-0.2l-6.8-26.9H124l-6.7,27h-0.2l-7.3-27H98.3L111,56.3h11.4l6.8-26.7h0.2l7.1,26.7
				h11.3l12.6-39.8H149L141.7,43.4z M199.7,47.4V26.7c0-2.4-0.5-4.4-1.6-5.8c-1.1-1.5-2.5-2.6-4.2-3.4c-1.7-0.8-3.6-1.4-5.6-1.7
				c-2.1-0.3-4.1-0.4-6.1-0.4c-2.2,0-4.4,0.2-6.6,0.7c-2.2,0.4-4.2,1.2-5.9,2.2c-1.8,1-3.2,2.4-4.3,4.1c-1.1,1.7-1.8,3.8-1.9,6.4h11
				c0.2-2.2,0.9-3.7,2.2-4.6c1.2-0.9,2.9-1.4,5.1-1.4c1,0,1.9,0.1,2.7,0.2c0.9,0.1,1.6,0.4,2.2,0.8c0.6,0.4,1.2,0.9,1.5,1.6
				c0.4,0.7,0.6,1.6,0.6,2.8c0.1,1.1-0.3,2-1,2.6c-0.7,0.6-1.7,1-2.9,1.3c-1.2,0.3-2.7,0.5-4.3,0.7c-1.6,0.2-3.2,0.4-4.9,0.6
				c-1.7,0.3-3.3,0.6-4.9,1c-1.6,0.4-3.1,1.1-4.3,2c-1.3,0.9-2.3,2-3.1,3.5c-0.8,1.5-1.2,3.3-1.2,5.6c0,2.1,0.3,3.8,1,5.3
				c0.7,1.5,1.7,2.7,2.9,3.7c1.2,1,2.7,1.7,4.3,2.2c1.6,0.5,3.4,0.7,5.3,0.7c2.5,0,4.9-0.4,7.3-1.1c2.4-0.7,4.4-2,6.2-3.8
				c0.1,0.7,0.1,1.3,0.3,2c0.1,0.6,0.3,1.3,0.5,1.9h11.1c-0.5-0.8-0.9-2.1-1.1-3.7C199.8,50.9,199.7,49.2,199.7,47.4z M188.7,40.9
				c0,0.6-0.1,1.4-0.2,2.5c-0.1,1-0.5,2-1,3c-0.6,1-1.4,1.9-2.6,2.6c-1.2,0.7-2.9,1.1-5,1.1c-0.9,0-1.7-0.1-2.6-0.2
				c-0.8-0.2-1.5-0.4-2.2-0.8c-0.6-0.4-1.1-0.9-1.5-1.6c-0.4-0.7-0.5-1.5-0.5-2.5c0-1,0.2-1.9,0.5-2.5c0.4-0.7,0.8-1.2,1.4-1.7
				c0.6-0.4,1.3-0.8,2.1-1c0.8-0.3,1.6-0.5,2.4-0.6c0.9-0.2,1.8-0.3,2.6-0.4c0.9-0.1,1.7-0.2,2.5-0.4c0.8-0.2,1.5-0.3,2.2-0.6
				c0.7-0.2,1.3-0.6,1.7-1V40.9z M207.3,56.3h11v-55h-11V56.3z M267.6,1.3c-4.5,0-7.8,1.1-10.1,3.4c-2.2,2.3-3.3,5.2-3.3,8.7v3.1
				h-14.5V4.5h-11v11.9h-6.7v7.3h6.7v23.5c0,2,0.3,3.6,1,4.9c0.7,1.2,1.6,2.2,2.7,2.8c1.2,0.7,2.5,1.1,4,1.3
				c1.5,0.2,3.1,0.3,4.8,0.3c1.1,0,2.2,0,3.3-0.1c1.1-0.1,2.2-0.2,3.1-0.3v-8.5c-0.5,0.1-1.1,0.2-1.6,0.2c-0.6,0.1-1.2,0.1-1.8,0.1
				c-1.9,0-3.1-0.3-3.7-0.9s-0.9-1.8-0.9-3.7V23.8h14.5v32.5h11V23.8h7.6v-7.3h-7.6v-2.4c0-1.6,0.3-2.8,1-3.5c0.6-0.7,1.7-1,3.2-1
				c1.4,0,2.7,0.1,4,0.2V1.6c-0.9-0.1-1.9-0.1-2.9-0.2C269.6,1.3,268.6,1.3,267.6,1.3z M302.2,15.8c-0.9-0.3-1.7-0.4-2.4-0.4
				c-1.4,0-2.7,0.2-4,0.6c-1.3,0.4-2.5,1-3.6,1.7c-1.1,0.7-2.1,1.6-3,2.7c-0.9,1.1-1.6,2.2-2.1,3.4h-0.2v-7.4h-10.4v39.8h11V38.3
				c0-1.8,0.2-3.5,0.5-5c0.4-1.5,1-2.9,1.8-4c0.9-1.2,2-2.1,3.4-2.7c1.4-0.7,3.1-1,5.1-1c0.7,0,1.4,0,2.1,0.1
				c0.7,0.1,1.3,0.2,1.9,0.3V15.8z M337.6,22.6c-1.6-2.2-3.7-4-6.2-5.3c-2.5-1.3-5.5-2-8.9-2c-3,0-5.8,0.5-8.3,1.6
				c-2.5,1.1-4.7,2.6-6.5,4.4c-1.8,1.9-3.2,4.1-4.2,6.7c-1,2.6-1.5,5.3-1.5,8.3c0,3.1,0.5,5.9,1.4,8.5c1,2.6,2.3,4.8,4.1,6.6
				c1.8,1.8,3.9,3.3,6.4,4.3c2.5,1,5.4,1.5,8.5,1.5c4.5,0,8.4-1,11.6-3.1c3.2-2.1,5.6-5.5,7.1-10.2h-9.7c-0.4,1.2-1.3,2.4-2.9,3.5
				c-1.6,1.1-3.5,1.7-5.7,1.7c-3.1,0-5.5-0.8-7.1-2.4c-1.7-1.6-2.6-4.2-2.7-7.7h28.8c0.2-3.1-0.1-6-0.8-8.9
				C340.4,27.4,339.2,24.8,337.6,22.6z M313,32.1c0.1-0.8,0.2-1.6,0.5-2.6c0.3-1,0.8-1.9,1.5-2.8c0.7-0.9,1.6-1.6,2.8-2.2
				c1.2-0.6,2.6-0.9,4.4-0.9c2.7,0,4.7,0.7,6,2.2c1.3,1.4,2.2,3.5,2.7,6.3H313z M347.5,56.3h11V16.5h-11V56.3z M347.5,10.3h11v-9
				h-11V10.3z M399.6,1.3h-12.1v55h39.1V46.1h-26.9V1.3z M464.6,22.6c-1.6-2.2-3.7-4-6.2-5.3c-2.5-1.3-5.5-2-8.9-2
				c-3,0-5.8,0.5-8.3,1.6c-2.5,1.1-4.7,2.6-6.5,4.4c-1.8,1.9-3.2,4.1-4.2,6.7c-1,2.6-1.5,5.3-1.5,8.3c0,3.1,0.5,5.9,1.4,8.5
				c1,2.6,2.3,4.8,4.1,6.6c1.8,1.8,3.9,3.3,6.4,4.3c2.5,1,5.4,1.5,8.5,1.5c4.5,0,8.4-1,11.6-3.1c3.2-2.1,5.6-5.5,7.1-10.2h-9.7
				c-0.4,1.2-1.3,2.4-2.9,3.5c-1.6,1.1-3.5,1.7-5.7,1.7c-3.1,0-5.5-0.8-7.1-2.4c-1.7-1.6-2.6-4.2-2.7-7.7h28.8
				c0.2-3.1-0.1-6-0.8-8.9C467.4,27.4,466.3,24.8,464.6,22.6z M440.1,32.1c0.1-0.8,0.2-1.6,0.5-2.6c0.3-1,0.8-1.9,1.5-2.8
				c0.7-0.9,1.6-1.6,2.8-2.2c1.2-0.6,2.6-0.9,4.4-0.9c2.7,0,4.7,0.7,6,2.2c1.3,1.4,2.2,3.5,2.7,6.3H440.1z M493.6,16
				c-1.3,0.4-2.5,1-3.6,1.7c-1.1,0.7-2.1,1.6-3,2.7c-0.9,1.1-1.6,2.2-2.1,3.4h-0.2v-7.4h-10.4v39.8h11V38.3c0-1.8,0.2-3.5,0.5-5
				c0.4-1.5,1-2.9,1.8-4c0.9-1.2,2-2.1,3.4-2.7c1.4-0.7,3.1-1,5.1-1c0.7,0,1.4,0,2.1,0.1c0.7,0.1,1.3,0.2,1.9,0.3V15.8
				c-0.9-0.3-1.7-0.4-2.4-0.4C496.2,15.4,494.9,15.6,493.6,16z M539.1,19.9c-1.1-1.4-2.6-2.5-4.4-3.3c-1.9-0.8-4.3-1.2-7.2-1.2
				c-2.3,0-4.6,0.5-6.8,1.6c-2.2,1.1-4,2.7-5.4,5H515v-5.5h-10.4v39.8h11V35.4c0-4.1,0.7-7,2-8.7c1.3-1.8,3.5-2.7,6.5-2.7
				c2.6,0,4.5,0.8,5.5,2.4c1,1.6,1.5,4.1,1.5,7.4v22.5h11V31.8c0-2.5-0.2-4.7-0.7-6.7C541,23,540.2,21.3,539.1,19.9z M582.9,22.6
				c-1.6-2.2-3.7-4-6.2-5.3c-2.5-1.3-5.5-2-8.9-2c-3,0-5.8,0.5-8.3,1.6c-2.5,1.1-4.7,2.6-6.5,4.4c-1.8,1.9-3.2,4.1-4.2,6.7
				c-1,2.6-1.5,5.3-1.5,8.3c0,3.1,0.5,5.9,1.4,8.5c1,2.6,2.3,4.8,4.1,6.6c1.8,1.8,3.9,3.3,6.4,4.3c2.5,1,5.4,1.5,8.5,1.5
				c4.5,0,8.4-1,11.6-3.1c3.2-2.1,5.6-5.5,7.1-10.2h-9.7c-0.4,1.2-1.3,2.4-2.9,3.5c-1.6,1.1-3.5,1.7-5.7,1.7c-3.1,0-5.5-0.8-7.1-2.4
				c-1.7-1.6-2.6-4.2-2.7-7.7h28.8c0.2-3.1-0.1-6-0.8-8.9C585.7,27.4,584.5,24.8,582.9,22.6z M558.3,32.1c0.1-0.8,0.2-1.6,0.5-2.6
				c0.3-1,0.8-1.9,1.5-2.8c0.7-0.9,1.6-1.6,2.8-2.2c1.2-0.6,2.6-0.9,4.4-0.9c2.7,0,4.7,0.7,6,2.2c1.3,1.4,2.2,3.5,2.7,6.3H558.3z
				 M629.3,25.1c-0.4-2-1.2-3.7-2.3-5.2c-1.1-1.4-2.6-2.5-4.4-3.3c-1.9-0.8-4.3-1.2-7.2-1.2c-2.3,0-4.6,0.5-6.8,1.6
				c-2.2,1.1-4,2.7-5.4,5h-0.2v-5.5h-10.4v39.8h11V35.4c0-4.1,0.7-7,2-8.7c1.3-1.8,3.5-2.7,6.5-2.7c2.6,0,4.5,0.8,5.5,2.4
				c1,1.6,1.5,4.1,1.5,7.4v22.5h11V31.8C630,29.3,629.8,27.1,629.3,25.1z"/>
		</g>
	</g>
</g>
</svg>
