<?xml version="1.0" encoding="utf-8"?>
<!-- Generator: Adobe Illustrator 18.0.0, SVG Export Plug-In . SVG Version: 6.00 Build 0)  -->
<!DOCTYPE svg PUBLIC "-//W3C//DTD SVG 1.1//EN" "http://www.w3.org/Graphics/SVG/1.1/DTD/svg11.dtd">
<svg version="1.1" id="Ebene_1" xmlns="http://www.w3.org/2000/svg" xmlns:xlink="http://www.w3.org/1999/xlink" x="0px" y="0px"
	 viewBox="0 0 640 77.1" enable-background="new 0 0 640 77.1" xml:space="preserve">
<g>
	<path fill="#3B5998" d="M62.7,77.1H53V46.6h10.2l1.5-11.2H53v-7.2c0-3.4,1.4-5.6,6.2-5.6l6.6-0.1V12.1c-1.6-0.2-4.8-0.5-9-0.5
		c-8.9,0-15.1,5.4-15.1,15.4v8.3H30.5v11.2h11.2v30.5H14.5C6.5,77.1,0,70.7,0,62.7V14.5C0,6.5,6.5,0,14.5,0h48.2
		c8,0,14.5,6.5,14.5,14.5v48.2C77.1,70.7,70.7,77.1,62.7,77.1z"/>
	<path fill="#28A9E0" d="M189.7,62.7c0,8-6.5,14.5-14.5,14.5H127c-8,0-14.5-6.5-14.5-14.5V14.5C112.6,6.5,119,0,127,0h48.2
		c8,0,14.5,6.5,14.5,14.5V62.7z M170.8,25.9c2.2-1.3,3.9-3.4,4.7-5.9c-2.1,1.2-4.3,2.1-6.7,2.6c-1.9-2.1-4.7-3.3-7.7-3.3
		c-5.8,0-10.5,4.7-10.5,10.5c0,0.8,0.1,1.7,0.3,2.4c-8.8-0.5-16.6-4.6-21.8-11c-0.9,1.6-1.5,3.4-1.5,5.3c0,3.7,1.7,6.9,4.6,8.8
		c-1.8-0.1-3.4-0.6-5-1.3c0,0,0,0.1,0,0.1c0,5.1,3.9,9.4,8.7,10.3c-0.9,0.3-1.6,0.4-2.6,0.4c-0.7,0-1.3-0.1-2-0.2
		c1.4,4.2,5.2,7.2,9.8,7.3c-3.6,2.8-8.1,4.5-13.1,4.5c-0.9,0-1.7-0.1-2.5-0.2c4.7,3,10.2,4.7,16.2,4.7c19.4,0,30-16.1,30-30
		c0-0.5,0-0.9-0.1-1.4c2.1-1.5,3.9-3.3,5.3-5.5C174.9,25.1,172.9,25.6,170.8,25.9z"/>
	<path fill="#D34836" d="M302.3,62.7c0,8-6.5,14.5-14.5,14.5h-48.2c-8,0-14.5-6.5-14.5-14.5V14.5c0-8,6.5-14.5,14.5-14.5h48.2
		c8,0,14.5,6.5,14.5,14.5V62.7z M272.8,11.2h-13.3c-8.3,0-17.1,5.1-17.1,14.2c0,6.3,5,10.8,11.2,10.8c0.7,0,1.5-0.1,2.2-0.2
		c-0.4,0.9-0.7,1.8-0.7,2.7c0,1.9,0.9,3.3,2,4.7c-4.3,0.3-9.2,0.9-12.9,3.2c-3,1.9-5.2,4.9-5.2,8.4c0,7.5,8.5,9.9,14.6,9.9
		c7.7,0,17.7-3.9,17.7-13.1c0-8.9-9.8-10.5-9.8-14.7c0-4.1,7.5-5.1,7.5-13.4c0-4.4-1.9-6.6-4.8-9.5h4.2L272.8,11.2z M256.8,62.2
		c-5.2,0-11.9-2.3-11.9-8.5c0-6.6,7.7-8.2,12.9-8.2c0.5,0,1,0,1.6,0.1c3.1,2.2,7.3,4.8,7.3,9.1C266.8,60.3,261.6,62.2,256.8,62.2z
		 M256.8,34.3c-5.7,0-8.4-7.5-8.4-12.3c0-3.8,2-7.4,6.2-7.4c5.7,0,8.5,8,8.5,12.7C263.1,31.2,260.9,34.3,256.8,34.3z M289.4,37v-3.2
		H283v-6.4h-3.2v6.4h-6.4V37h6.4v8h3.2v-8H289.4z"/>
	<path fill="#006464" d="M414.8,62.7c0,8-6.5,14.5-14.5,14.5h-48.2c-8,0-14.5-6.5-14.5-14.5V14.5c0-8,6.5-14.5,14.5-14.5h48.2
		c8,0,14.5,6.5,14.5,14.5V62.7z M365.8,20.8c-0.5-0.8-1.2-1.7-2.6-1.7h-9.2c-0.6,0-1.1,0.2-1.3,0.6c-0.3,0.4-0.2,1,0.1,1.5L359,32
		c0,0,0,0,0,0.1l-9.8,17.4c-0.3,0.5-0.3,1,0,1.4s0.7,0.7,1.2,0.7h9.3c1.4,0,2.1-1,2.5-1.8c9.6-17,10-17.7,10-17.7
		S372.1,31.9,365.8,20.8z M402.2,6.4h-9.4c-1.4,0-2,0.9-2.5,1.8c-20,35.5-20.6,36.6-20.6,36.6s0,0.1,13.2,24.2
		c0.5,0.8,1.2,1.8,2.6,1.8h9.2c0.6,0,1-0.2,1.3-0.6s0.3-0.9-0.1-1.4l-13.1-23.9v0l20.5-36.3c0.3-0.5,0.3-1,0-1.4
		S402.8,6.4,402.2,6.4z"/>
	<path fill="#0073B2" d="M527.4,62.7c0,8-6.5,14.5-14.5,14.5h-48.2c-8,0-14.5-6.5-14.5-14.5V14.5c0-8,6.5-14.5,14.5-14.5H513
		c8,0,14.5,6.5,14.5,14.5V62.7z M468.1,13c-4,0-6.6,2.6-6.6,6c0,3.3,2.5,6,6.4,6h0c4.1,0,6.6-2.7,6.6-6C474.5,15.6,472,13,468.1,13z
		 M473.8,64.6V29.7h-11.6v34.9H473.8z M515.5,64.6v-20c0-10.7-5.7-15.7-13.4-15.7c-6.2,0-9,3.5-10.5,5.9h0.1v-5.1h-11.6
		c0,0,0.2,3.3,0,34.9h11.6V45.1c0-1,0.1-2.1,0.4-2.8c0.9-2.1,2.8-4.2,6-4.2c4.2,0,5.8,3.2,5.8,7.9v18.6H515.5z"/>
	<path fill="#F58331" d="M601.4,77.1c-21.3,0-38.6-17.3-38.6-38.6S580.1,0,601.4,0S640,17.3,640,38.6S622.7,77.1,601.4,77.1z
		 M614.3,54.6c0-0.9-0.7-1.6-1.6-1.6h-4.8V27.3c0-0.9-0.7-1.6-1.6-1.6h-16.1c-0.9,0-1.6,0.7-1.6,1.6v8c0,0.9,0.7,1.6,1.6,1.6h4.8V53
		h-4.8c-0.9,0-1.6,0.7-1.6,1.6v8c0,0.9,0.7,1.6,1.6,1.6h22.5c0.9,0,1.6-0.7,1.6-1.6V54.6z M607.9,9.6c0-0.9-0.7-1.6-1.6-1.6h-9.6
		c-0.9,0-1.6,0.7-1.6,1.6v8c0,0.9,0.7,1.6,1.6,1.6h9.6c0.9,0,1.6-0.7,1.6-1.6V9.6z"/>
</g>
</svg>
